<svg xmlns="http://www.w3.org/2000/svg" xmlns:xlink="http://www.w3.org/1999/xlink" viewBox="0 0 409.49 369.71"><defs><style>.cls-1,.cls-18,.cls-24,.cls-5{fill:#ff5733;}.cls-1,.cls-10,.cls-16,.cls-17,.cls-2,.cls-22,.cls-3,.cls-33,.cls-36,.cls-37,.cls-38,.cls-6{stroke:#263238;}.cls-1,.cls-10,.cls-16,.cls-17,.cls-2,.cls-22,.cls-3,.cls-36,.cls-37,.cls-38{stroke-linecap:round;stroke-linejoin:round;}.cls-2,.cls-33,.cls-35,.cls-7{fill:#fff;}.cls-26,.cls-3{fill:#263238;}.cls-17,.cls-4{fill:#92e3a9;}.cls-12,.cls-5{opacity:0.7;}.cls-10,.cls-27,.cls-6{fill:none;}.cls-27,.cls-33,.cls-6{stroke-miterlimit:10;}.cls-22,.cls-8{fill:#bfbfbf;}.cls-9{fill:#757575;}.cls-11,.cls-37{fill:#f5d012;}.cls-13,.cls-38{fill:#ed5561;}.cls-14,.cls-36{fill:#79ff68;}.cls-15{fill:#999;}.cls-16,.cls-21,.cls-24{opacity:0.3;}.cls-19{clip-path:url(#clip-path);}.cls-20{opacity:0.2;}.cls-23{clip-path:url(#clip-path-2);}.cls-25{clip-path:url(#clip-path-3);}.cls-27{stroke:#bfbfbf;}.cls-28{clip-path:url(#clip-path-4);}.cls-29,.cls-30{fill:#f9644b;}.cls-30,.cls-32,.cls-35{opacity:0.1;}.cls-31,.cls-32{fill:#ce4630;}.cls-34{clip-path:url(#clip-path-5);}</style><clipPath id="clip-path"><path class="cls-1" d="M269.26,350.67c-.74,5.69-1.58,11.85-2.54,18.54H180.88l.41-11.06c-5.13,1.24-15.1.48-15.1.48V342.28c6.06-3.43,7-2.47,7-2.47s.31-39.9,3.94-49.86a20.09,20.09,0,0,1,7.1-9.34h0a24.31,24.31,0,0,1,2.71-1.75l.13-.08c1-.53,2.21-1.09,3.59-1.67L191,277c13.44-5.49,42.77-11.86,70.1-.18,1.91.82,17.51,8.27,18.84,19C280.7,302,276.52,332.49,269.26,350.67Z"/></clipPath><clipPath id="clip-path-2"><path class="cls-1" d="M200.55,345.65a3.55,3.55,0,0,1,4.1-1,3.67,3.67,0,0,1,4.06-.28c2,1.32,6,16.32,2.11,19.12-1.13.81-4.25,1.56-5.21-.05a2.37,2.37,0,0,1-3.65-1.15c-1.12-2.61.92-5.82-2-13.4A3.18,3.18,0,0,1,200.55,345.65Z"/></clipPath><clipPath id="clip-path-3"><path class="cls-2" d="M235.83,271.55,234.4,251.4l-20.85,4.83-1.11,16.18c-1.31.16-2.57.34-3.79.53l5.1,12.23,10,1.3,15.94-14.69C238.36,271.69,237.08,271.61,235.83,271.55Z"/></clipPath><clipPath id="clip-path-4"><path class="cls-1" d="M211.41,271.47l7.7,13.86,18.49-14.59,5.68.8-12,21.15a1.62,1.62,0,0,1-2.28.56l-10.23-6.45-8,4.88a1.63,1.63,0,0,1-2.47-1.22l-2-18Z"/></clipPath><clipPath id="clip-path-5"><path class="cls-3" d="M167.43,346.31H62.57a5,5,0,0,1-4.78-4.26L48.69,268a3.69,3.69,0,0,1,3.74-4.27H157.28a5,5,0,0,1,4.79,4.27l9.1,74.1A3.69,3.69,0,0,1,167.43,346.31Z"/></clipPath></defs><g id="Layer_2" data-name="Layer 2"><g id="Background_Simple" data-name="Background Simple"><path class="cls-4" d="M47.67,296.48C22.05,260-36.53,153.41,81.56,121.55S161.84-1.32,248.1,0,419,73.61,408.62,142.17s-105,63.11-131.51,133.93S92.73,360.58,47.67,296.48Z"/><path class="cls-5" d="M47.67,296.83C22.05,260.39-36.53,153.76,81.56,121.9S161.84-1,248.1.36,419,74,408.62,142.52s-105,63.11-131.51,133.93S92.73,360.93,47.67,296.83Z"/></g><g id="Graphics"><path class="cls-6" d="M341.93,132.44a21.83,21.83,0,0,0,11-6.38l7.05,2.39,3.52-6.1-5.59-4.9a21.83,21.83,0,0,0,0-12.74l5.59-4.92L360,93.7,353,96.09a21.83,21.83,0,0,0-11-6.38l-1.47-7.29H337"/><path class="cls-6" d="M333.43,82.42,332,89.71a21.9,21.9,0,0,0-11,6.38l-7.05-2.39-3.52,6.09,5.59,4.92a22.05,22.05,0,0,0,0,12.74l-5.59,4.9,3.52,6.1,7.05-2.39a21.9,21.9,0,0,0,11,6.38l1.46,7.29h7l1.47-7.29"/><path class="cls-6" d="M336.5,122.81c-12.54-.88-14.89-19.14-2.36-22.35"/><path class="cls-6" d="M344.43,103c6.24,5.71,4.27,16.87-4.05,19.39"/><path class="cls-6" d="M338.38,100.2a11.2,11.2,0,0,1,3.15.88"/><path class="cls-6" d="M379.29,138l1.48-1.77a14.44,14.44,0,0,0,8.38-.22l3.33,3.6"/><path class="cls-6" d="M373.82,110.26l.65,1.75a14.4,14.4,0,0,0-4,7.37l-4.78,1.09.12,4.63,4.83.84a14.59,14.59,0,0,0,1.66,3.9,14.33,14.33,0,0,0,2.72,3.25l-1.45,4.68,4.07,2.21"/><path class="cls-6" d="M392.48,139.6l3.95-2.42-1.69-4.6a14.38,14.38,0,0,0,4-7.37l4.78-1.08-.12-4.63-4.82-.84a14.46,14.46,0,0,0-1.66-3.9,14.15,14.15,0,0,0-2.72-3.25l1.45-4.68-4.07-2.21-3.14,3.76a14.35,14.35,0,0,0-8.38.21L376.73,105l-4,2.42"/><path class="cls-6" d="M391.89,120.59c1.37,5.75-4.09,11.28-9.86,8.95-5.5-2.23-6.3-10.3-1.2-13.4"/><path class="cls-6" d="M387.17,115.44a7.24,7.24,0,0,1,3,2"/><path class="cls-6" d="M70.23,234.31l7.51,7.51a8.09,8.09,0,0,0,9.74,9.73l-4.72-4.72L84,242.06l4.77-1.28,4.72,4.72a8.09,8.09,0,0,0-9.74-9.73l-6.91-6.92"/><path class="cls-6" d="M65.89,217.86,59,211a8.09,8.09,0,0,0-9.73-9.74L54,206l-1.28,4.77L47.93,212l-4.72-4.72A8.09,8.09,0,0,0,52.94,217l6.9,6.89"/><path class="cls-6" d="M73.63,225.11l9.61-9.61a6.49,6.49,0,0,1,1.61-1.18l1.93-1,7-7.95L89.39,201l-8,7-1,1.93a6.49,6.49,0,0,1-1.18,1.61l-7.62,7.62"/><path class="cls-6" d="M48.05,250.32a3.26,3.26,0,0,0,4.18-.58l16.65-16.65a3.17,3.17,0,0,0,1-2.9l2.89-2.88.17.17A1.07,1.07,0,0,0,74.49,226l-5.7-5.7a1.07,1.07,0,1,0-1.51,1.52l.17.17-2.89,2.89a3.16,3.16,0,0,0-2.89,1L45,242.53A3.22,3.22,0,0,0,44,245.27"/><path class="cls-6" d="M44.62,247A10.13,10.13,0,0,0,46,248.75a9,9,0,0,0,2,1.57"/><line class="cls-6" x1="49.75" y1="245.27" x2="52.66" y2="242.36"/><line class="cls-6" x1="56.59" y1="238.43" x2="68.89" y2="225.87"/></g><g id="Coding"><rect class="cls-7" x="58.37" y="26.04" width="266.6" height="173.2"/><polygon class="cls-8" points="324.97 26.04 58.37 26.04 58.37 199.24 86.56 199.24 131.25 199.24 324.97 199.24 324.97 26.04"/><rect class="cls-7" x="58.37" y="26.04" width="266.6" height="22.66"/><rect class="cls-9" x="58.37" y="26.04" width="266.6" height="22.66"/><rect class="cls-7" x="303.98" y="29.65" width="15.44" height="15.44" rx="2.62"/><rect class="cls-7" x="285.06" y="29.65" width="15.44" height="15.44" rx="2.64"/><rect class="cls-7" x="266.13" y="29.65" width="15.44" height="15.44" rx="2.62"/><rect class="cls-3" x="68.37" y="58.7" width="246.6" height="130.54" rx="5.22"/><line class="cls-10" x1="308.39" y1="40.68" x2="315.01" y2="34.05"/><line class="cls-10" x1="308.39" y1="34.05" x2="315.01" y2="40.68"/><rect class="cls-10" x="288.36" y="35.95" width="8.83" height="5.83"/><line class="cls-10" x1="278.27" y1="41.78" x2="269.44" y2="41.78"/><path class="cls-9" d="M299.46,147.44H281.94a2,2,0,0,1,0-4h17.52a2,2,0,0,1,0,4Z"/><path class="cls-9" d="M299.46,161.27H250.53a2,2,0,0,1,0-4h48.93a2,2,0,0,1,0,4Z"/><path class="cls-11" d="M299.46,175.1H191.67a2,2,0,0,1,0-4H299.46a2,2,0,0,1,0,4Z"/><path class="cls-8" d="M86.87,133.6H78.7a2,2,0,0,1,0-4h8.17a2,2,0,0,1,0,4Z"/><path class="cls-8" d="M86.87,147.44H78.7a2,2,0,1,1,0-4h8.17a2,2,0,0,1,0,4Z"/><path class="cls-8" d="M86.87,161.27H78.7a2,2,0,0,1,0-4h8.17a2,2,0,0,1,0,4Z"/><path class="cls-8" d="M86.87,175.1H78.7a2,2,0,0,1,0-4h8.17a2,2,0,1,1,0,4Z"/><g class="cls-12"><path class="cls-8" d="M86.87,133.6H78.7a2,2,0,0,1,0-4h8.17a2,2,0,0,1,0,4Z"/></g><g class="cls-12"><path class="cls-8" d="M87.19,147.44H80.37a2,2,0,0,1,0-4h6.82a2,2,0,0,1,0,4Z"/></g><g class="cls-12"><path class="cls-11" d="M86.87,161.27H78.7a2,2,0,0,1,0-4h8.17a2,2,0,0,1,0,4Z"/></g><g class="cls-12"><path class="cls-8" d="M86.87,175.1H78.7a2,2,0,0,1,0-4h8.17a2,2,0,1,1,0,4Z"/></g><path class="cls-11" d="M250.53,119.77H78.7a2,2,0,0,1,0-4H250.53a2,2,0,0,1,0,4Z"/><path class="cls-8" d="M299.46,92.1H281.94a2,2,0,0,1,0-4h17.52a2,2,0,0,1,0,4Z"/><path class="cls-13" d="M274.6,92.1H257.87a2,2,0,0,1,0-4H274.6a2,2,0,0,1,0,4Z"/><path class="cls-14" d="M250.53,92.1H78.7a2,2,0,0,1,0-4H250.53a2,2,0,0,1,0,4Z"/><path class="cls-13" d="M299.46,133.6H281.94a2,2,0,0,1,0-4h17.52a2,2,0,0,1,0,4Z"/><path class="cls-15" d="M274.6,133.6H95.87a2,2,0,0,1,0-4H274.6a2,2,0,0,1,0,4Z"/><path class="cls-15" d="M147.2,147.44H95.87a2,2,0,0,1,0-4H147.2a2,2,0,0,1,0,4Z"/><path class="cls-13" d="M147.2,161.27H95.87a2,2,0,0,1,0-4H147.2a2,2,0,0,1,0,4Z"/><path class="cls-14" d="M147.2,175.1H95.87a2,2,0,0,1,0-4H147.2a2,2,0,0,1,0,4Z"/></g><g id="Character_1" data-name="Character 1"><path class="cls-2" d="M113.49,352.52s-5.25,9-3.18,9.35,6.39-7.48,6.39-7.48l11.84-3.14-8.92-.92Z"/><path class="cls-16" d="M113.49,352.52s-5.25,9-3.18,9.35,6.39-7.48,6.39-7.48l11.84-3.14-8.92-.92Z"/><path class="cls-2" d="M117.48,346.36s-7.34-1.74-9.36,1.7-8,13.64-5.74,14.81,4.16-2.6,4.16-2.6Z"/><path class="cls-2" d="M147.5,356.82a33.39,33.39,0,0,1-15,1.58l-8.35,2.77s-7.34,3.62-10.76,1.8,8.7-5.84,8.7-5.84,8.15-3.53,5.72-4.38-11.63-.68-13.44.7-6.54,10.36-10,9.85,1.45-5.4,2.67-7.28,4-9.38,9.57-9.7S141,347,141,347l22.09-2.36,5.22,12.57Z"/><path class="cls-17" d="M159,359.93a3.54,3.54,0,0,0,4.21-.06,3.68,3.68,0,0,0,4-.74c1.61-1.78,1.75-17.3-2.71-19.05-1.29-.51-4.51-.45-5,1.35a2.36,2.36,0,0,0-3.24,2c-.45,2.8,2.34,5.41,1.41,13.46A3.17,3.17,0,0,0,159,359.93Z"/><path class="cls-16" d="M159,359.93a3.54,3.54,0,0,0,4.21-.06,3.68,3.68,0,0,0,4-.74c1.61-1.78,1.75-17.3-2.71-19.05-1.29-.51-4.51-.45-5,1.35a2.36,2.36,0,0,0-3.24,2c-.45,2.8,2.34,5.41,1.41,13.46A3.17,3.17,0,0,0,159,359.93Z"/><path class="cls-10" d="M164.12,356.31A30,30,0,0,0,161.48,344"/><path class="cls-18" d="M269.26,350.67c-.74,5.69-1.58,11.85-2.54,18.54H180.88l.41-11.06c-5.13,1.24-15.1.48-15.1.48V342.28c6.06-3.43,7-2.47,7-2.47s.31-39.9,3.94-49.86a20.09,20.09,0,0,1,7.1-9.34h0a24.31,24.31,0,0,1,2.71-1.75l.13-.08c1-.53,2.21-1.09,3.59-1.67L191,277c13.44-5.49,42.77-11.86,70.1-.18,1.91.82,17.51,8.27,18.84,19C280.7,302,276.52,332.49,269.26,350.67Z"/><g class="cls-19"><path class="cls-20" d="M255.66,301.48l-8.56,39.73c-1.33-1-5.16-1.12-10-.66a15.66,15.66,0,0,0,2.59-3.88C252.6,308.67,255.43,302,255.66,301.48Z"/><path class="cls-20" d="M271.3,345.13a176,176,0,0,0-4.58,24.08H180.88l.79-12.74c5.35-.76,14.74-1.54,24.49-3.27a21.76,21.76,0,0,1,.23,9.31s39.48,4.9,52.73,1.71c3.78-.91,7.2-6.19,10.13-13.46C270,349,270.64,347.1,271.3,345.13Z"/><path class="cls-21" d="M174.17,340.56s-1.92-1.71-8,1.72v16.35s10-.35,13.93-2.48c3.38,2.09,2.78-36.18,3.38-56.79-4.9,1.35-5.3,10.67-6.05,19.44A176.76,176.76,0,0,1,174.17,340.56Z"/></g><path class="cls-10" d="M269.26,350.67c-.74,5.69-1.58,11.85-2.54,18.54H180.88l.41-11.06c-5.13,1.24-15.1.48-15.1.48V342.28c6.06-3.43,7-2.47,7-2.47s.31-39.9,3.94-49.86a20.09,20.09,0,0,1,7.1-9.34h0a24.31,24.31,0,0,1,2.71-1.75l.13-.08c1-.53,2.21-1.09,3.59-1.67L191,277c13.44-5.49,42.77-11.86,70.1-.18,1.91.82,17.51,8.27,18.84,19C280.7,302,276.52,332.49,269.26,350.67Z"/><path class="cls-10" d="M279.94,295.81c0,.24.06.52.07.83.44,7.68-3.74,36.66-10.76,54.12-2.93,7.27-6.35,12.55-10.13,13.46-13.25,3.19-52.73-1.71-52.73-1.71a21.88,21.88,0,0,0-2.95-15.7s38.76-9.48,43.66-5.6l8.58-39.77"/><path class="cls-10" d="M249.8,343.37a17.7,17.7,0,0,1,6.86,5.89"/><path class="cls-2" d="M151.05,344.8s-3.61-.76-5.08.89-7.77,11.11-5.64,12.91,6.46-8.09,6.46-8.09Z"/><path class="cls-2" d="M158.31,344.63s-8-1.72-9.82.73-11.92,15.12-5.63,15.53l10.06-11.28Z"/><path class="cls-22" d="M176.46,358.11s-8.25,1.8-11.6,2.46-9.57,5-13.25,3.27,12-8.1,12-8.1l5.39-2.17Z"/><path class="cls-10" d="M183.14,308.75q.17-4.69.35-9.39"/><path class="cls-10" d="M180.88,369.21C182.41,350.28,183,313,183,313"/><path class="cls-2" d="M206.39,347.89H177.94s-22.08-6.62-25.76-1.47-11.52,13-9.32,14.47,11.53-9.19,11.53-9.19l8.09.07s-6.86,3-8.33,4.46-4.66,5.64-3,6.38,7.11-4.66,7.11-4.66,8.1-2,10.06-1a27.92,27.92,0,0,0,20.36,2l21.71,2.7Z"/><path class="cls-10" d="M252.71,315.21a42.14,42.14,0,0,1-.09-13.77"/><path class="cls-10" d="M259.16,291.36s13.8-18.18,20.78,4.45"/><path class="cls-18" d="M200.55,345.65a3.55,3.55,0,0,1,4.1-1,3.67,3.67,0,0,1,4.06-.28c2,1.32,6,16.32,2.11,19.12-1.13.81-4.25,1.56-5.21-.05a2.37,2.37,0,0,1-3.65-1.15c-1.12-2.61.92-5.82-2-13.4A3.18,3.18,0,0,1,200.55,345.65Z"/><g class="cls-23"><path class="cls-24" d="M200.55,345.65a3.55,3.55,0,0,1,4.1-1,3.67,3.67,0,0,1,4.06-.28c2,1.32,6,16.32,2.11,19.12-1.13.81-4.25,1.56-5.21-.05a2.37,2.37,0,0,1-3.65-1.15c-1.12-2.61.92-5.82-2-13.4A3.18,3.18,0,0,1,200.55,345.65Z"/></g><path class="cls-10" d="M200.55,345.65a3.55,3.55,0,0,1,4.1-1,3.67,3.67,0,0,1,4.06-.28c2,1.32,6,16.32,2.11,19.12-1.13.81-4.25,1.56-5.21-.05a2.37,2.37,0,0,1-3.65-1.15c-1.12-2.61.92-5.82-2-13.4A3.18,3.18,0,0,1,200.55,345.65Z"/><path class="cls-10" d="M206.87,353.44a25.16,25.16,0,0,1,.08,7"/><path class="cls-2" d="M219.37,308.53a1.94,1.94,0,1,1-1.83-2A1.95,1.95,0,0,1,219.37,308.53Z"/><path class="cls-2" d="M218,338.73a1.95,1.95,0,1,1-1.83-2.06A1.95,1.95,0,0,1,218,338.73Z"/><path class="cls-7" d="M235.83,271.55,234.4,251.4l-20.85,4.83-1.11,16.18c-1.31.16-2.57.34-3.79.53l5.1,12.23,10,1.3,15.94-14.69C238.36,271.69,237.08,271.61,235.83,271.55Z"/><g class="cls-25"><path class="cls-26" d="M213.24,263.36c.14,14.33,16.89,9.94,21.52-4.38l-.36-7.58-20.85,4.83Z"/></g><path class="cls-10" d="M235.83,271.55,234.4,251.4l-20.85,4.83-1.11,16.18c-1.31.16-2.57.34-3.79.53l5.1,12.23,10,1.3,15.94-14.69C238.36,271.69,237.08,271.61,235.83,271.55Z"/><path class="cls-3" d="M200.47,234.39s-7.62-13.18-8.75-20.13c-3.48-21.47,12-14.23,12-14.23s11-9.81,24.61-8.09,17.25,7.53,26.43,11.09c0,0-6.89,35-15.72,42.87S200.47,234.39,200.47,234.39Z"/><path class="cls-10" d="M204.48,203.22s-3.44-8.34,5.27-14.71"/><path class="cls-27" d="M219.46,198.21c10.19-4.5,14.73,3,26.11,5"/><path class="cls-27" d="M211.59,203.22a12.9,12.9,0,0,1,3.3-2.95"/><path class="cls-27" d="M222.05,206.49s4.41-4.24,13.15,1.27a22.91,22.91,0,0,0,8.74,3.44"/><path class="cls-2" d="M235.53,215.65c-12.69.33-25.78-5.4-25.78-5.4C197.93,217.38,199.69,229,199.69,229c2.7,27.7,6.35,35.08,19.29,35.08s23.46-14,24.3-34C238.39,230.33,235.53,215.65,235.53,215.65Z"/><path class="cls-2" d="M242.2,229a3.34,3.34,0,0,1,2.6-1.47c2.3,0,4,3,3.18,6.75s-1.86,6.74-4.16,6.74a2.59,2.59,0,0,1-2.37-1.76"/><path class="cls-10" d="M217,242.57s1.55,2.12-1.42,3.71-5.34,1.56-6.09-.26S212,229,212,229"/><path class="cls-10" d="M211.52,231.45c-1.6-.81-8-3.61-14.08.21l.39,5.88s2.24,1.23,7.38,1.23a20.65,20.65,0,0,0,5-.52"/><path class="cls-10" d="M216.83,231.66l1.86,6.13s.76,1,5.91,1,6.84-1.23,6.84-1.23l-.15-5.88S223.82,227.25,216.83,231.66Z"/><line class="cls-10" x1="211.93" y1="231.66" x2="216.83" y2="231.66"/><path class="cls-10" d="M213,251.84a13.44,13.44,0,0,0,8.15-.25,11.3,11.3,0,0,0,5.07-3.82"/><path class="cls-10" d="M221.12,225.86c6.43-2.65,9.26.53,9.26.53"/><path class="cls-10" d="M204.15,225.6a6.5,6.5,0,0,1,6.87.79"/><path class="cls-26" d="M223.68,230.33c.59,0,1,1,1,2.17s-.5,2.16-1.09,2.16-1-1-1-2.16S223.08,230.33,223.68,230.33Z"/><path class="cls-26" d="M207.71,230.06c.59,0,1,.95,1,2.17s-.5,2.16-1.09,2.16-1-1-1-2.16S207.13,230.06,207.71,230.06Z"/><path class="cls-27" d="M197,219a16.35,16.35,0,0,0,1,3.44"/><path class="cls-27" d="M204.72,205.81c-6.32-1.7-8.82,2.1-8.35,8.09"/><path class="cls-18" d="M211.41,271.47l7.7,13.86,18.49-14.59,5.68.8-12,21.15a1.62,1.62,0,0,1-2.28.56l-10.23-6.45-8,4.88a1.63,1.63,0,0,1-2.47-1.22l-2-18Z"/><g class="cls-28"><path class="cls-24" d="M210.73,271.38l8.38,13.95,18.81-14.85,5.67.9-12.27,21.31a1.62,1.62,0,0,1-2.28.56l-10.23-6.45-8,4.88a1.63,1.63,0,0,1-2.47-1.22l-2-18Z"/></g><path class="cls-10" d="M211.41,271.47l7.7,13.86,18.49-14.59,5.68.8-12,21.15a1.62,1.62,0,0,1-2.28.56l-10.23-6.45-8,4.88a1.63,1.63,0,0,1-2.47-1.22l-2-18Z"/><path class="cls-3" d="M96.76,362.5H147a0,0,0,0,1,0,0v6.7a0,0,0,0,1,0,0H96.76a2,2,0,0,1-2-2v-2.76A2,2,0,0,1,96.76,362.5Z"/><path class="cls-1" d="M190.3,369.21H147V362.5l43.36,2.86a1.38,1.38,0,0,1,1.28,1.37v1.11A1.37,1.37,0,0,1,190.3,369.21Z"/><path class="cls-10" d="M231.31,232.64,242.2,229l-1.29,1.63"/></g><g id="Desk"><path class="cls-29" d="M33.85,325.79S30.41,296.38,0,308.23c0,0,25.88-.19,30.25,22l4-.43Z"/><path class="cls-30" d="M33.85,325.79S30.41,296.38,0,308.23c0,0,25.88-.19,30.25,22l4-.43Z"/><path class="cls-31" d="M34.27,325.29s-2.64-31.36-8.36-55.73c0,0,17.5,18.51,13.5,53.36Z"/><path class="cls-32" d="M34.27,325.29s-2.64-31.36-8.36-55.73c0,0,17.5,18.51,13.5,53.36Z"/><path class="cls-18" d="M32.57,346.05s-5.05-43.2-21.84-58c0,0,30,7.47,25.58,53.35Z"/><path class="cls-18" d="M37.85,344.24s7.35-42.86,24.91-56.77c0,0-30.38,5.84-28.4,51.9Z"/><path class="cls-33" d="M53.26,330.22H17.76v6.17h1.18v21.77a11.05,11.05,0,0,0,11,11H41a11,11,0,0,0,11-11V336.39h1.19Z"/><path class="cls-33" d="M42.25,336.1H47"/><path class="cls-33" d="M23.75,336.1h13.7"/><path class="cls-1" d="M173.42,342.05,164.33,268a5,5,0,0,0-4.79-4.27H149.1l12.05,82.63h8.54A3.69,3.69,0,0,0,173.42,342.05Z"/><path class="cls-26" d="M167.43,346.31H62.57a5,5,0,0,1-4.78-4.26L48.69,268a3.69,3.69,0,0,1,3.74-4.27H157.28a5,5,0,0,1,4.79,4.27l9.1,74.1A3.69,3.69,0,0,1,167.43,346.31Z"/><g class="cls-34"><path class="cls-35" d="M167.43,346.31H62.57a5,5,0,0,1-4.78-4.26L48.69,268a3.69,3.69,0,0,1,3.74-4.27H157.28a5,5,0,0,1,4.79,4.27l9.1,74.1A3.69,3.69,0,0,1,167.43,346.31Z"/></g><path class="cls-10" d="M167.43,346.31H62.57a5,5,0,0,1-4.78-4.26L48.69,268a3.69,3.69,0,0,1,3.74-4.27H157.28a5,5,0,0,1,4.79,4.27l9.1,74.1A3.69,3.69,0,0,1,167.43,346.31Z"/><path class="cls-3" d="M118.54,363.15l4.18-47.73a2,2,0,0,0-2-2.13H94.3a2,2,0,0,0-2,1.79l-4.56,52a2,2,0,0,0,2,2.14h52.44a2,2,0,0,0,2-2h0a2,2,0,0,0-2-2H120.49A2,2,0,0,1,118.54,363.15Z"/><path class="cls-1" d="M144.14,367.25a2,2,0,0,0-2-2H120.49a2,2,0,0,1-1.95-2.13l4.18-47.73a2,2,0,1,0-3.89-.34l-4.56,52a2,2,0,0,0,2,2.14h25.95A2,2,0,0,0,144.14,367.25Z"/><line class="cls-10" x1="23.91" y1="369.21" x2="398.91" y2="369.21"/></g><g id="Code"><path class="cls-36" d="M373.82,187.61H354.11a4.63,4.63,0,0,0-4.64,4.63v9.6a4.64,4.64,0,0,0,4.64,4.63h5.15l1.5,8.85,7.91-8.85h5.15a4.64,4.64,0,0,0,4.64-4.63v-9.6A4.63,4.63,0,0,0,373.82,187.61Z"/><path class="cls-37" d="M343.6,159.24H323.89a4.63,4.63,0,0,0-4.64,4.63v9.59a4.64,4.64,0,0,0,4.64,4.64H329l3.9,8.85,5.51-8.85h5.15a4.64,4.64,0,0,0,4.64-4.64v-9.59A4.63,4.63,0,0,0,343.6,159.24Z"/><path class="cls-38" d="M305.24,169.19H286.62a4.38,4.38,0,0,0-4.38,4.38v9.06a4.38,4.38,0,0,0,4.38,4.37h4.87l5.07,8.36,3.81-8.36h4.87a4.37,4.37,0,0,0,4.37-4.37v-9.06A4.38,4.38,0,0,0,305.24,169.19Z"/><path class="cls-26" d="M293.38,176v1.09c0,1.34-.65,2.07-2,2.07h-.63v3.16h-1.32v-8.4h1.95C292.73,173.88,293.38,174.61,293.38,176Zm-2.59-.88v2.84h.63c.42,0,.64-.19.64-.79v-1.26c0-.6-.22-.79-.64-.79Z"/><path class="cls-26" d="M295.37,182.28h-1.31v-8.4h1.31v3.6h1.5v-3.6h1.35v8.4h-1.35v-3.6h-1.5Z"/><path class="cls-26" d="M303.09,176v1.09c0,1.34-.65,2.07-2,2.07h-.62v3.16h-1.32v-8.4h1.94C302.44,173.88,303.09,174.61,303.09,176Zm-2.59-.88v2.84h.62c.42,0,.65-.19.65-.79v-1.26c0-.6-.23-.79-.65-.79Z"/><path class="cls-26" d="M330.92,170v1.12c0,1.34-.67,2.11-2,2.11a1.84,1.84,0,0,1-2-2.11v-4.37a1.84,1.84,0,0,1,2-2.11c1.3,0,2,.77,2,2.11v.82h-1.25v-.9c0-.6-.26-.83-.68-.83s-.69.23-.69.83v4.53c0,.6.27.82.69.82s.68-.22.68-.82V170Z"/><path class="cls-26" d="M334.09,168.43h1.6v.93h-1.6V171h-.94v-1.64h-1.61v-.93h1.61v-1.62h.94Z"/><path class="cls-26" d="M338.84,168.43h1.61v.93h-1.61V171h-.94v-1.64h-1.6v-.93h1.6v-1.62h.94Z"/><path class="cls-26" d="M354.72,198v-1.28l5.34-2V196l-3.67,1.31,3.67,1.31v1.3Z"/><path class="cls-26" d="M365.33,191.58h1.55l-4.52,11.48H360.8Z"/><path class="cls-26" d="M367.62,199.93v-1.3l3.67-1.31L367.62,196v-1.3l5.34,2V198Z"/></g></g></svg>