<svg xmlns="http://www.w3.org/2000/svg" viewBox="0 0 337.28 308.21"><defs><style>.cls-1{fill:#c6ff00;}.cls-2,.cls-7{fill:#ff562d;}.cls-2{opacity:0.7;}.cls-3{opacity:0.1;}.cls-4,.cls-6{fill:#263238;}.cls-10,.cls-11,.cls-12,.cls-4,.cls-5,.cls-7,.cls-9{stroke:#263238;}.cls-12,.cls-4,.cls-5,.cls-7{stroke-linecap:round;stroke-linejoin:round;}.cls-5,.cls-8{fill:#fff;}.cls-8{stroke:#fff;}.cls-10,.cls-11,.cls-8,.cls-9{stroke-miterlimit:10;}.cls-10,.cls-11,.cls-12,.cls-9{fill:none;}.cls-9{stroke-width:0.25px;}.cls-10{stroke-width:0.5px;}.cls-11{stroke-width:0.75px;}</style></defs><g id="Layer_2" data-name="Layer 2"><g id="Background_Simple" data-name="Background Simple"><path class="cls-1" d="M304.53,88.77c-5.06-4.12-10.42-7.88-15.47-12-23.82-19.55-37.38-48.49-64.64-64.06-29-16.56-66.59-16.91-96.27-1.08-33,17.6-44.21,56.06-70.94,80.93-41.43,38.54-55.69,81.9-36.68,119.75,13.8,27.47,50.07,44.3,77,54.68,33.41,12.89,67,37.82,103.22,40.94,30.88,2.65,62-12.23,76.52-40.56,8.24-16.08,23.26-26.49,35.68-39,32.71-32.82,31.58-95.33,2-129.75A80.2,80.2,0,0,0,304.53,88.77Z"/><path class="cls-2" d="M304.53,88.77c-5.06-4.12-10.42-7.88-15.47-12-23.82-19.55-37.38-48.49-64.64-64.06-29-16.56-66.59-16.91-96.27-1.08-33,17.6-44.21,56.06-70.94,80.93-41.43,38.54-55.69,81.9-36.68,119.75,13.8,27.47,50.07,44.3,77,54.68,33.41,12.89,67,37.82,103.22,40.94,30.88,2.65,62-12.23,76.52-40.56,8.24-16.08,23.26-26.49,35.68-39,32.71-32.82,31.58-95.33,2-129.75A80.2,80.2,0,0,0,304.53,88.77Z"/></g><g id="Device"><path class="cls-3" d="M132.28,293.16l11.56-2.5Q115,164,86.16,37.43C77.25,47,69.37,64,53.67,78.58c-49.44,46-66.46,97.74-43.77,142.91,14.46,28.78,51.65,46.65,91.86,65.26,6.92,3.2,12.8,5.64,17,7.29Z"/><path class="cls-4" d="M215.37,288.25,93.5,298.35c-3.51.29-7-2.63-7.78-6.53l-51.84-255c-.79-3.89-2.39-11.21,11.77-11.89l123.26-9.53c3.5-.29,7,2.63,7.78,6.53l52.62,255.48C230.08,280.79,226.24,288,215.37,288.25Z"/><path class="cls-5" d="M224.7,283.59,102.83,293.68c-3.5.29-7-2.63-7.78-6.52L43.21,32.1c-.79-3.89,1.41-7.28,4.92-7.57L170,14.44c3.51-.29,7,2.63,7.78,6.52L229.62,276C230.41,279.91,228.21,283.3,224.7,283.59Z"/><path class="cls-6" d="M121.63,34.79l-16.75,1.39a2.13,2.13,0,0,1-2.1-1.77h0a1.6,1.6,0,0,1,1.33-2L120.86,31a2.11,2.11,0,0,1,2.1,1.76h0A1.6,1.6,0,0,1,121.63,34.79Z"/><path class="cls-7" d="M217.66,259.71,100.1,269.44,53.59,40.65l27.87-2.31L85.18,41a6.48,6.48,0,0,0,4.22,1.24l49.16-4.08a5.13,5.13,0,0,0,3.69-2l2.27-3,26.64-2.21Z"/><path class="cls-6" d="M164.07,271.32a3.32,3.32,0,0,0-3.28-2.75,2.5,2.5,0,0,0-2.07,3.19A3.31,3.31,0,0,0,162,274.5,2.49,2.49,0,0,0,164.07,271.32Z"/><path class="cls-8" d="M88,89.71l-12.56,1a4.27,4.27,0,0,1-4.23-3.54L68.39,73.27c-.43-2.12.77-4,2.68-4.12l12.56-1a4.27,4.27,0,0,1,4.23,3.54L90.7,85.59C91.13,87.71,89.93,89.56,88,89.71Z"/><path class="cls-8" d="M116.08,87.39l-12.56,1a4.27,4.27,0,0,1-4.23-3.55L96.45,70.94c-.43-2.12.77-4,2.68-4.12l12.56-1a4.27,4.27,0,0,1,4.23,3.55l2.84,13.94C119.19,85.39,118,87.23,116.08,87.39Z"/><path class="cls-8" d="M144.14,85.07l-12.56,1a4.28,4.28,0,0,1-4.23-3.55l-2.84-13.94c-.43-2.12.77-4,2.68-4.12l12.56-1A4.27,4.27,0,0,1,144,67L146.82,81C147.25,83.06,146.05,84.91,144.14,85.07Z"/><path class="cls-8" d="M172.2,82.74l-12.56,1a4.27,4.27,0,0,1-4.23-3.54l-2.84-13.95c-.43-2.11.77-4,2.68-4.12l12.56-1A4.28,4.28,0,0,1,172,64.68l2.84,13.94C175.31,80.74,174.11,82.58,172.2,82.74Z"/><path class="cls-8" d="M94.54,121.78l-12.56,1a4.28,4.28,0,0,1-4.24-3.55l-2.83-13.94c-.43-2.12.77-4,2.67-4.12l12.57-1a4.28,4.28,0,0,1,4.23,3.55l2.83,13.94C97.64,119.77,96.44,121.62,94.54,121.78Z"/><path class="cls-8" d="M122.6,119.45l-12.56,1A4.28,4.28,0,0,1,105.8,117L103,103c-.43-2.12.77-4,2.67-4.12l12.57-1a4.28,4.28,0,0,1,4.23,3.54l2.83,13.94C125.7,117.45,124.51,119.3,122.6,119.45Z"/><path class="cls-8" d="M178.72,114.81l-12.56,1a4.29,4.29,0,0,1-4.24-3.55l-2.83-13.94c-.43-2.12.77-4,2.67-4.12l12.57-1a4.28,4.28,0,0,1,4.23,3.55l2.83,13.94C181.82,112.8,180.63,114.65,178.72,114.81Z"/><path class="cls-8" d="M101.05,153.84l-12.56,1a4.27,4.27,0,0,1-4.23-3.55l-2.83-13.94c-.43-2.11.76-4,2.67-4.12l12.56-1a4.28,4.28,0,0,1,4.24,3.55l2.83,13.94C104.16,151.84,103,153.68,101.05,153.84Z"/><path class="cls-8" d="M129.11,151.52l-12.56,1a4.27,4.27,0,0,1-4.23-3.55l-2.83-13.94c-.43-2.12.76-4,2.67-4.12l12.56-1a4.28,4.28,0,0,1,4.24,3.55l2.83,13.94C132.22,149.51,131,151.36,129.11,151.52Z"/><path class="cls-8" d="M157.17,149.19l-12.56,1a4.27,4.27,0,0,1-4.23-3.54l-2.83-13.94c-.43-2.12.76-4,2.67-4.12l12.56-1a4.28,4.28,0,0,1,4.24,3.54l2.83,13.94C160.28,147.19,159.08,149,157.17,149.19Z"/><path class="cls-8" d="M185.23,146.87l-12.56,1a4.28,4.28,0,0,1-4.23-3.55l-2.83-13.94c-.43-2.12.76-4,2.67-4.12l12.56-1a4.28,4.28,0,0,1,4.24,3.55l2.83,13.94C188.34,144.87,187.14,146.71,185.23,146.87Z"/><path class="cls-8" d="M107.57,185.9l-12.56,1a4.27,4.27,0,0,1-4.23-3.54l-2.84-13.94c-.43-2.12.77-4,2.68-4.12l12.56-1a4.27,4.27,0,0,1,4.23,3.54l2.84,13.94C110.68,183.9,109.48,185.75,107.57,185.9Z"/><path class="cls-8" d="M135.63,183.58l-12.56,1a4.27,4.27,0,0,1-4.23-3.55L116,167.13c-.43-2.12.77-4,2.68-4.12l12.56-1a4.27,4.27,0,0,1,4.23,3.55l2.84,13.94C138.74,181.58,137.54,183.42,135.63,183.58Z"/><path class="cls-8" d="M163.69,181.26l-12.56,1a4.28,4.28,0,0,1-4.23-3.55l-2.84-13.94c-.43-2.12.77-4,2.68-4.12l12.56-1a4.27,4.27,0,0,1,4.23,3.55l2.84,13.94C166.8,179.25,165.6,181.1,163.69,181.26Z"/><path class="cls-8" d="M191.75,178.93l-12.56,1a4.27,4.27,0,0,1-4.23-3.54l-2.84-14c-.43-2.11.77-4,2.68-4.12l12.56-1a4.29,4.29,0,0,1,4.23,3.55l2.84,13.94C194.86,176.93,193.66,178.77,191.75,178.93Z"/><path class="cls-8" d="M114.09,218l-12.56,1a4.28,4.28,0,0,1-4.24-3.55l-2.83-13.94c-.43-2.12.77-4,2.67-4.12l12.57-1a4.28,4.28,0,0,1,4.23,3.55l2.83,13.94C117.19,216,116,217.81,114.09,218Z"/><path class="cls-8" d="M142.15,215.64l-12.56,1a4.28,4.28,0,0,1-4.24-3.54l-2.83-13.94c-.43-2.12.77-4,2.67-4.12l12.57-1a4.28,4.28,0,0,1,4.23,3.54l2.83,13.94C145.25,213.64,144.06,215.49,142.15,215.64Z"/><path class="cls-8" d="M170.21,213.32l-12.56,1a4.28,4.28,0,0,1-4.24-3.55l-2.83-13.94c-.43-2.12.77-4,2.67-4.12l12.57-1a4.28,4.28,0,0,1,4.23,3.55l2.83,13.94C173.31,211.32,172.12,213.16,170.21,213.32Z"/><path class="cls-8" d="M198.27,211l-12.56,1a4.29,4.29,0,0,1-4.24-3.55l-2.83-13.94c-.43-2.12.77-4,2.67-4.12l12.57-1a4.28,4.28,0,0,1,4.23,3.55l2.83,13.94C201.37,209,200.18,210.84,198.27,211Z"/><path class="cls-6" d="M120.6,250l-12.56,1a4.27,4.27,0,0,1-4.23-3.55L101,233.58c-.43-2.11.76-4,2.67-4.12l12.56-1a4.28,4.28,0,0,1,4.24,3.55l2.83,13.94C123.71,248,122.51,249.87,120.6,250Z"/><path class="cls-6" d="M148.66,247.71l-12.56,1a4.28,4.28,0,0,1-4.23-3.55L129,231.26c-.43-2.12.76-4,2.67-4.12l12.56-1a4.28,4.28,0,0,1,4.24,3.55l2.83,13.94C151.77,245.7,150.57,247.55,148.66,247.71Z"/><path class="cls-6" d="M176.72,245.38l-12.56,1a4.28,4.28,0,0,1-4.23-3.54l-2.83-13.94c-.43-2.12.76-4,2.67-4.12l12.56-1a4.28,4.28,0,0,1,4.24,3.54l2.83,13.94C179.83,243.38,178.63,245.23,176.72,245.38Z"/><path class="cls-6" d="M204.78,243.06l-12.56,1a4.28,4.28,0,0,1-4.23-3.55l-2.83-13.94c-.43-2.12.76-4,2.67-4.12l12.56-1a4.28,4.28,0,0,1,4.24,3.55l2.83,13.94C207.89,241.06,206.69,242.9,204.78,243.06Z"/><path class="cls-9" d="M159.4,127.74l-25.52,2.11c-3.87.32-7.73-2.9-8.6-7.21l-5.76-28.32c-.87-4.3,1.56-8,5.44-8.37l25.52-2.11c3.88-.32,7.73,2.91,8.6,7.21l5.76,28.32C165.71,123.67,163.28,127.42,159.4,127.74Z"/><path class="cls-10" d="M156.87,124.67l-21.77,1.8c-3.31.28-6.59-2.47-7.34-6.14l-4.91-24.17c-.74-3.67,1.33-6.87,4.64-7.14l21.77-1.8c3.31-.28,6.59,2.48,7.34,6.15l4.91,24.16C162.26,121.2,160.18,124.4,156.87,124.67Z"/><path class="cls-11" d="M153.54,120.62,136.71,122c-2.56.22-5.1-1.91-5.67-4.75l-3.8-18.67c-.57-2.84,1-5.31,3.59-5.52l16.82-1.39c2.56-.21,5.1,1.91,5.67,4.75l3.8,18.67C157.7,117.94,156.09,120.41,153.54,120.62Z"/><path class="cls-6" d="M150.66,117.13l-12.56,1a4.28,4.28,0,0,1-4.24-3.55L131,100.68c-.43-2.12.77-4,2.67-4.12l12.57-1a4.28,4.28,0,0,1,4.23,3.55L153.33,113C153.76,115.13,152.57,117,150.66,117.13Z"/></g><g id="Graphics"><line class="cls-12" x1="49.83" y1="161.29" x2="49.83" y2="168.72"/><line class="cls-12" x1="53.55" y1="165" x2="46.12" y2="165"/><line class="cls-12" x1="256.92" y1="69.02" x2="256.92" y2="76.45"/><line class="cls-12" x1="260.63" y1="72.74" x2="253.2" y2="72.74"/><line class="cls-12" x1="245.15" y1="262.95" x2="245.15" y2="270.38"/><line class="cls-12" x1="248.87" y1="266.66" x2="241.43" y2="266.66"/><line class="cls-12" x1="151.34" y1="11.49" x2="151.34" y2="18.92"/><line class="cls-12" x1="155.06" y1="15.2" x2="147.63" y2="15.2"/><line class="cls-12" x1="29.01" y1="215.94" x2="29.01" y2="223.37"/><line class="cls-12" x1="32.72" y1="219.65" x2="25.29" y2="219.65"/><circle class="cls-12" cx="247.45" cy="42.23" r="6.14" transform="translate(149.66 273.43) rotate(-76.76)"/><circle class="cls-12" cx="35.95" cy="173.32" r="6.14" transform="translate(-63.59 26.95) rotate(-22.5)"/><path class="cls-12" d="M281.52,105.08a1.4,1.4,0,1,1-1.39-1.4A1.39,1.39,0,0,1,281.52,105.08Z"/><path class="cls-12" d="M234.05,275a1.4,1.4,0,1,1-1.4-1.4A1.4,1.4,0,0,1,234.05,275Z"/><path class="cls-12" d="M310.83,196.58a1.4,1.4,0,1,1-1.39-1.4A1.4,1.4,0,0,1,310.83,196.58Z"/><path class="cls-12" d="M233.49,176.12a1.4,1.4,0,1,1-1.4-1.4A1.4,1.4,0,0,1,233.49,176.12Z"/><path class="cls-12" d="M136.25,23.67a1.4,1.4,0,1,1-1.4-1.4A1.4,1.4,0,0,1,136.25,23.67Z"/></g></g></svg>