<svg xmlns="http://www.w3.org/2000/svg" viewBox="0 0 391.79 388.61"><defs><style>.cls-1,.cls-13,.cls-16,.cls-17,.cls-18,.cls-7{fill:none;}.cls-1,.cls-13,.cls-16,.cls-19,.cls-20,.cls-22,.cls-3,.cls-4,.cls-5,.cls-7,.cls-9{stroke:#263238;}.cls-1,.cls-13,.cls-16,.cls-17,.cls-18,.cls-19,.cls-20,.cls-22,.cls-5{stroke-linecap:round;stroke-linejoin:round;}.cls-1,.cls-10,.cls-13,.cls-17,.cls-18,.cls-3,.cls-4,.cls-5,.cls-7,.cls-9{stroke-width:1.1px;}.cls-1{stroke-dasharray:4.41;}.cls-2,.cls-8{opacity:0.7;}.cls-11,.cls-3,.cls-4{fill:#ff562d;}.cls-10,.cls-3,.cls-4,.cls-7,.cls-9{stroke-miterlimit:10;}.cls-14,.cls-4{opacity:0.5;}.cls-10,.cls-12,.cls-14,.cls-5{fill:#fff;}.cls-21,.cls-6,.cls-8{fill:#263238;}.cls-9{fill:#92e3a9;}.cls-10{stroke:#222221;}.cls-15,.cls-17{opacity:0.2;}.cls-16{stroke-width:2.21px;}.cls-17,.cls-18{stroke:#fff;}.cls-19{fill:#ed5561;}.cls-20{fill:#79ff68;}.cls-21{font-size:12px;font-family:Corbel-Bold, Corbel;font-weight:700;}.cls-22{fill:#f5d012;}</style></defs><g id="Layer_2" data-name="Layer 2"><g id="Lines"><path class="cls-1" d="M27.9,131.08H22.48A21.93,21.93,0,0,0,.55,153V273.35a21.93,21.93,0,0,0,21.93,21.93H96.84a21.93,21.93,0,0,0,21.94-21.93h0"/></g><g id="Shadow"><g class="cls-2"><ellipse class="cls-3" cx="199.71" cy="361.3" rx="191.52" ry="26.76"/><ellipse class="cls-4" cx="199.71" cy="361.3" rx="191.52" ry="26.76"/></g></g><g id="Window"><path class="cls-5" d="M380.25,49.42V229.48a22.2,22.2,0,0,1-22.19,22.2H41.37a22.2,22.2,0,0,1-22.2-22.2V49.42c0-.53,0-1,.07-1.56A22.19,22.19,0,0,1,41.37,27.22H358.06a22.2,22.2,0,0,1,22.13,20.64C380.23,48.38,380.25,48.89,380.25,49.42Z"/><path class="cls-3" d="M380.19,47.86H19.24A22.19,22.19,0,0,1,41.37,27.22H358.06A22.2,22.2,0,0,1,380.19,47.86Z"/><path class="cls-6" d="M63.59,37.54a3.93,3.93,0,1,1-3.93-3.93A3.93,3.93,0,0,1,63.59,37.54Z"/><path class="cls-6" d="M80.22,37.54a3.94,3.94,0,1,1-3.93-3.93A3.93,3.93,0,0,1,80.22,37.54Z"/><circle class="cls-6" cx="92.91" cy="37.54" r="3.93"/><path class="cls-7" d="M370.58,56.18V222.51a20.8,20.8,0,0,1-20.8,20.8h-299a20.79,20.79,0,0,1-20.39-16.77h0v0a21,21,0,0,1-.38-4V56.18Z"/><path class="cls-8" d="M370.26,81.91A20.74,20.74,0,0,0,365.64,80l-1.86-8.35h-7.95L354,80a20.17,20.17,0,0,0-4.63,1.91l-7.17-4.59-5.62,5.61,4.51,7.17a21.3,21.3,0,0,0-1.91,4.64l-8.35,1.85v7.94l8.35,1.87a20.86,20.86,0,0,0,1.91,4.66l-4.59,7.22,5.62,5.61,7.21-4.59a20.28,20.28,0,0,0,4.64,1.92l1.85,8.34h7.94l1.87-8.34a21,21,0,0,0,4.62-1.92l.36.23V81.7Zm-10.43,29a10.26,10.26,0,1,1,10.26-10.25A10.25,10.25,0,0,1,359.83,110.86Z"/><path class="cls-8" d="M227.16,90V73.21l-17.6-3.91a45.51,45.51,0,0,0-4-9.77l2.13-3.36h-83.1l2.06,3.27a43.08,43.08,0,0,0-4,9.76L105,73.12V89.86l17.6,3.93a43.68,43.68,0,0,0,4,9.84l-9.68,15.21,11.85,11.84L144,121a44.38,44.38,0,0,0,9.77,4l3.91,17.59h16.74l3.94-17.59a44.64,44.64,0,0,0,9.74-4l15.21,9.68,11.84-11.84-9.61-15.21a45.87,45.87,0,0,0,4-9.75Zm-61,13.26a21.63,21.63,0,1,1,21.63-21.63A21.63,21.63,0,0,1,166.16,103.21Z"/><path class="cls-8" d="M116.1,204.94l.7-13.29L103,187.77a37.24,37.24,0,0,0-2.83-7.9l8.32-11.68-8.91-9.89-12.47,7a37,37,0,0,0-7.59-3.62L77.18,147.6l-13.28-.71L60.06,160.7a35.22,35.22,0,0,0-7.9,2.8l-11.67-8.32-9.9,8.92,7.06,12.47A34.6,34.6,0,0,0,34,184.15l-4,.66v18l2.92.82a34.63,34.63,0,0,0,2.83,7.92l-5.75,8,.38,6.89v0h0l5.92,6.58,12.49-7.05a34.44,34.44,0,0,0,7.61,3.67l2.27,13.56h0l.11.56,13.28.71.35-1.27h0l3.49-12.53a35.86,35.86,0,0,0,7.94-2.8l11.65,8.3,9.91-8.9-7-12.48a35,35,0,0,0,3.6-7.57ZM80.82,184.19a17.2,17.2,0,1,0-1.28,24.27A17.19,17.19,0,0,0,80.82,184.19Z"/><path class="cls-8" d="M222.31,185.09a26.72,26.72,0,0,0,.81-6.29l9.55-5L230,164.09l-10.78.5a26.84,26.84,0,0,0-3.87-5l3.19-10.31-8.7-5-7.28,8a28.12,28.12,0,0,0-6.27-.8l-5-9.56-9.67,2.64.51,10.79a27,27,0,0,0-5,3.87L166.79,156l-5,8.69,8,7.27a26.46,26.46,0,0,0-.79,6.27l-9.56,5,2.64,9.68,10.79-.51a25.06,25.06,0,0,0,3.86,5l-3.21,10.26,8.7,5,7.24-7.88a26.12,26.12,0,0,0,6.29.79l5,9.56,9.67-2.63-.43-9.22-.07-1.58a26.48,26.48,0,0,0,5.07-3.87l10.3,3.2,4.26-7.44.73-1.26ZM199.44,191a13,13,0,1,1,9.1-15.9A13,13,0,0,1,199.44,191Z"/><path class="cls-8" d="M333,202.13l2.21-13.3-13.46-5.41a35.77,35.77,0,0,0-1.93-8.3l9.68-10.79-7.84-11L308.33,159a35.31,35.31,0,0,0-7.21-4.48l-.79-14.49-13.3-2.2-5.45,13.4a37.74,37.74,0,0,0-8.26,1.94l-10.82-9.68-11,7.84,5.68,13.35a36.19,36.19,0,0,0-4,6.29l-.46.92-14.48.81L236,186l2.19.88,11.27,4.55a35.18,35.18,0,0,0,1.93,8.26l-9.68,10.82,7.84,11,13.36-5.7a34.72,34.72,0,0,0,7.2,4.52l.75,14.42,13.29,2.2,5.44-13.3a34.63,34.63,0,0,0,8.29-1.95l10.8,9.7,11-7.85L314,210.17a35.24,35.24,0,0,0,4.56-7.25Zm-37.3-.6a17.41,17.41,0,1,1,4-24.29A17.41,17.41,0,0,1,295.73,201.53Z"/></g><g id="Graphics"><rect class="cls-9" x="35.1" y="103.67" width="130.8" height="171.01" rx="13.11"/><rect class="cls-3" x="35.1" y="103.67" width="130.8" height="171.01" rx="13.11"/><path class="cls-5" d="M178.08,129.7V274.49A13.11,13.11,0,0,1,165,287.61H60.38a13.11,13.11,0,0,1-13.1-13.12V129.7a13.11,13.11,0,0,1,13.1-13.11H165A13.11,13.11,0,0,1,178.08,129.7Z"/><path class="cls-3" d="M178.08,129.7v7.75H47.28V129.7a13.11,13.11,0,0,1,13.1-13.11H165A13.11,13.11,0,0,1,178.08,129.7Z"/><rect class="cls-3" x="59.58" y="146.43" width="32.18" height="5.4"/><rect class="cls-3" x="59.58" y="194.82" width="32.18" height="5.4"/><rect class="cls-3" x="59.58" y="238.7" width="32.18" height="5.4"/><rect class="cls-6" x="59.58" y="159.8" width="91.39" height="3.96"/><rect class="cls-6" x="59.58" y="167.37" width="74.91" height="3.86"/><rect class="cls-6" x="59.58" y="174.82" width="84.72" height="3.86"/><rect class="cls-6" x="59.58" y="182.26" width="84.72" height="3.86"/><rect class="cls-6" x="59.58" y="203.68" width="91.39" height="3.96"/><rect class="cls-6" x="59.58" y="211.25" width="74.91" height="3.86"/><rect class="cls-6" x="59.58" y="218.7" width="84.72" height="3.86"/><rect class="cls-6" x="59.58" y="251.86" width="91.39" height="3.96"/><rect class="cls-6" x="59.58" y="259.44" width="74.91" height="3.86"/><rect class="cls-6" x="59.58" y="266.89" width="84.72" height="3.86"/><path class="cls-10" d="M325.48,16.19V74.71a15.63,15.63,0,0,1-15.63,15.63H175.06a15.63,15.63,0,0,1-15.63-15.63V16.19A15.64,15.64,0,0,1,175.06.55H309.85A15.64,15.64,0,0,1,325.48,16.19Z"/><path class="cls-3" d="M325.48,16.19v1.34h-166V16.19A15.64,15.64,0,0,1,175.06.55H309.85A15.64,15.64,0,0,1,325.48,16.19Z"/><path class="cls-6" d="M183.82,11.84a2.39,2.39,0,1,1,0-3.39A2.4,2.4,0,0,1,183.82,11.84Z"/><path class="cls-6" d="M194.94,11.84a2.39,2.39,0,1,1,0-3.39A2.4,2.4,0,0,1,194.94,11.84Z"/><path class="cls-6" d="M206.06,11.84a2.39,2.39,0,1,1,0-3.39A2.4,2.4,0,0,1,206.06,11.84Z"/><rect class="cls-1" x="170.02" y="28.29" width="54.28" height="46.92"/><rect class="cls-6" x="232.67" y="28.29" width="62.47" height="3.3"/><rect class="cls-6" x="232.67" y="35.12" width="47.92" height="3.29"/><rect class="cls-6" x="232.67" y="41.92" width="71.35" height="3.33"/><rect class="cls-6" x="232.67" y="48.55" width="60.76" height="3.33"/></g><g id="Character"><path class="cls-11" d="M246.58,356.36s-29,8.32-33.05,9.76c-3.69,1.3-13.67,4.79-21.16,3.71a15.89,15.89,0,0,1-2.14-.46c-7.59-2.26-11-4.37-12-9.14s2.78-8.29,6.42-10.54,23.39-4.6,23.39-4.6l4.76,1.4h0Z"/><path class="cls-12" d="M192.37,369.83a15.89,15.89,0,0,1-2.14-.46c-7.59-2.26-11-4.37-12-9.14s2.78-8.29,6.42-10.54,23.39-4.6,23.39-4.6l4.76,1.4c-4.31,2-20.4,3.09-23.9,5.11s-5.21,5.82-3.14,11C186.88,365.3,189.83,368,192.37,369.83Z"/><path class="cls-13" d="M242.21,357.55s-21.78,5.64-30.41,9.25-25.12,5.19-31-2.25-.67-13.86,5.2-15.29,17.73-3.68,24.21-2.77"/><path class="cls-13" d="M192.81,369.44s-11.08-6.08-7.4-14.6c2.71-6.28,17.49-4.92,24.81-8.35"/><path class="cls-11" d="M334.9,371.18c-.3,3-1.34,5.81-4.34,7.58-2,1.18-4.85,1.88-8.92,1.84-10.17-.13-29.28-7.4-29.28-7.4l-17.91-9.9,9.31-14.73,2.55-4L292.9,346s5.45,3.09,10.93,5.55,18.78,3,23.47,6.77S335.41,366.24,334.9,371.18Z"/><path class="cls-12" d="M334.9,371.18c-.3,3-1.34,5.81-4.34,7.58a13.46,13.46,0,0,0-.51-8.94c-2-4.49-8.51-8.45-17.07-9.11s-15.11-4.67-18.54-6.45c-2.68-1.39-8.33-4.43-10.68-5.69l2.55-4L292.9,346s5.45,3.09,10.93,5.55,18.78,3,23.47,6.77S335.41,366.24,334.9,371.18Z"/><path class="cls-13" d="M278.42,366.08a112.86,112.86,0,0,0,41.9,14.31c3.26.39,7.05.45,9.23-2a6.78,6.78,0,0,0,1.5-5.11c-.39-4.6-4.25-8.24-8.49-10.07S313.64,361,309.14,360a53.6,53.6,0,0,1-12.91-4.72c-3.23-1.69-6.36-3.74-9.94-4.5s-7.82.16-9.72,3.28"/><path class="cls-13" d="M328.36,379.64a12,12,0,0,0,6.55-8.46c.64-4.33-1.82-8.69-5.3-11.35s-7.82-3.92-12.11-4.81-8.67-1.49-12.75-3.08c-6.28-2.46-12.46-7.3-19-5.57"/><path class="cls-11" d="M298.62,211.16l-30.29-11.52-.38-.15s.12-.8.2-2c.19-2.42.29-6.36-.85-7.69-1.68-2-6.47-.32-11.14-2.46s-13.3,1.69-13.3,1.69-6.23-1.15-9,3.35c-1.4,3.63-.92,9-.92,9s-.19.08-.57.21c-3.61,1.35-23.24,8.74-27.4,11.71-4.59,3.25-9.66,36.62-11.3,46.42s-4.53,18.63-3.05,22,22.57,19.62,34.7,23.81,55.19,3,55.19,3,.71-.19,2-.59c7.28-2.34,33.12-12,46.82-34.68C329.3,273.29,316,229.76,298.62,211.16Zm-81.84,56.13c-2.23,1.58-1,7.7-1,7.7L212,271.65l9.52-23.41,4.06,18S219,265.72,216.78,267.29Zm76.16,14.87c-1.05.54,3-10.71,1.08-13.26s-7.71-2.31-7.71-2.31l.5-3.07c.06-.35,3.43-17.6,3.43-17.6l1.13-1.35s11.78,20.19,13.89,27.31C305.26,271.88,292.42,282.16,292.94,282.16Z"/><path class="cls-12" d="M241.43,138.15l-15.63,16.6s-2.16,1.91-1.3,6.72,2.85,8.95,4.36,9.28a21.3,21.3,0,0,0,3.62.32s3.35,7.26,5.72,10.11c0,0,.83,11.21.38,14.32,0,0,5.62,4.91,10.91,5.53S263,193.55,263,193.55l2-9.92s4.8-7.28,5.13-9.22,2.52-1.44,3.59-2.4,3.57-5.23,4-9.27.44-8.68-4.26-7.32c-4.06-1.09-1.52-9.69-1.52-9.69l-7.14-6.3Z"/><path class="cls-14" d="M268.33,199.64a14.85,14.85,0,0,1-.81,1.8c-2.58,4.87-13.82,14.14-13.82,14.14l-3.39-10.45-1.87,10.45c-3.75-1.64-15.19-11.55-15.19-11.55s-.39-.93-.86-2.38c.38-.13.57-.21.57-.21s-.48-5.4.92-9c2.75-4.5,9-3.35,9-3.35s8.64-3.83,13.3-1.69,9.46.48,11.14,2.46.65,9.66.65,9.66Z"/><path class="cls-15" d="M298.62,211.16l-30.29-11.52-.38-.15s.12-.8.2-2l-.63,3.92-4.47,6.09a124.21,124.21,0,0,1,14,6.16,12.28,12.28,0,0,1,6.42,12.25l-5.58,47.75-2.28,27.11,6.9,7.17c7.28-2.34,33.12-12,46.82-34.68C329.3,273.29,316,229.76,298.62,211.16Zm-5.68,71c-1.05.54,3-10.71,1.08-13.26s-7.71-2.31-7.71-2.31l.5-3.07c.06-.35,3.43-17.6,3.43-17.6l1.13-1.35s11.78,20.19,13.89,27.31C305.26,271.88,292.42,282.16,292.94,282.16Z"/><path class="cls-15" d="M227.58,268.9l-4.71-15.74s-8.44-28.81-14.24-35.91l1.53,20.26s-5,24.2-9.57,31.39-5.59,9,0,9,19.19,10.84,19.19,10.84l-1.05-9ZM215.74,275,212,271.65l9.52-23.41,4.06,18s-6.52-.49-8.75,1.08S215.74,275,215.74,275Z"/><path class="cls-13" d="M238.2,181.18s.87,8.49,0,12.37"/><path class="cls-13" d="M263.82,192.41a36.2,36.2,0,0,1,.95-8.11"/><path class="cls-13" d="M266.1,144.48s5.13,6.45,4.87,11.33-.66,10.66-.53,16.32-9.08,17.52-13.83,18.57S247.79,192,244.76,189s-6-7.24-10-12.64-3-17.25-3-17.25"/><path class="cls-13" d="M253.73,163.61a27.58,27.58,0,0,0-.4,5.37,6.12,6.12,0,0,0,1.32,4.2c.57.58,1.39,1,1.5,1.85a2,2,0,0,1-1,1.75,14.79,14.79,0,0,0-1.85,1.1"/><path class="cls-13" d="M245.58,178.5s.59,3.83,5.73,4.63"/><path class="cls-6" d="M246.11,166.53c0,1.11-.47,2-1.06,2s-1.07-.89-1.07-2,.48-2,1.07-2S246.11,165.43,246.11,166.53Z"/><path class="cls-6" d="M261.42,167c0,1.11-.48,2-1.07,2s-1.06-.9-1.06-2,.47-2,1.06-2S261.42,165.91,261.42,167Z"/><path class="cls-16" d="M258.33,162.16s5-5,9.19.58"/><path class="cls-16" d="M247.8,162.26s-3.15-3.54-8.13,0"/><path class="cls-6" d="M238.58,185.85s3,8.4,9.86,10.79,15.85-10,15.85-10l-.47-1.61s-5.92,7.7-12.51,6.38-13.11-10.24-13.11-10.24Z"/><path class="cls-13" d="M232.48,170.75s-4.06,1.43-5.14-1.73-4.78-11.49-1.54-14.27,5.83,3.67,5.83,3.67"/><path class="cls-13" d="M270.43,172.47s3.78.76,4.86-2.4,4.77-11.49,1.54-14.27-5.84,3.67-5.84,3.67"/><path class="cls-6" d="M231.63,166.53a5.67,5.67,0,0,0,3.57-2.1,8.92,8.92,0,0,0,1-3.19,38.64,38.64,0,0,0,.57-6.44,8.8,8.8,0,0,1,.22-2.51,6.6,6.6,0,0,1,1.36-2.23c1.42-1.66,3.12-3.06,4.47-4.78a7.94,7.94,0,0,0,2-6,27.48,27.48,0,0,0,22.48,5.81c7.14-1.4,14-7.67,13.16-15.55a6.37,6.37,0,0,0-5-5.48c-3.53-.88-6.71,1-9.91,2.21-5.83,2.2-11.54-1.58-17.43-2.21-5-.55-11.22.08-13.85,5.09,0,0-9.05,1.06-13,8.5s3.58,17.73,3.58,17.73,3-3.68,6.93,3.76Z"/><path class="cls-6" d="M266.67,142.58s-2.35,12.2,3.76,18.11c0,0,1.34-3.67,2.7-4.57a14.16,14.16,0,0,0-1.07-13.54C267.59,135.48,266.67,142.58,266.67,142.58Z"/><path class="cls-17" d="M277.86,128.7a11.52,11.52,0,0,1-7,7.27c-8.48,3.46-16.71-.37-25.2-1.12-6.94-.62-14.59,5.64-15.07,12.76"/><path class="cls-17" d="M225.34,145.73a14.82,14.82,0,0,1,9-13.08"/><path class="cls-13" d="M236.24,192.41a38.71,38.71,0,0,0,13.21,9s10.15-2.95,15.32-10"/><circle class="cls-13" cx="242.86" cy="166.53" r="8.98" transform="translate(-47.31 116.4) rotate(-24.64)"/><circle class="cls-13" cx="262.93" cy="166.53" r="8.98" transform="translate(-18.34 33.3) rotate(-7)"/><path class="cls-13" d="M238.2,189.06a7,7,0,0,0-4.32,3.35c-1.59,2.8-.63,11.61-.63,11.61s8.2,8.12,15.19,11.55L250.5,204l3.2,11.59s10.83-7.65,13.82-14.12c0,0,1-7.55,0-10a3.46,3.46,0,0,0-3.23-2.36"/><path class="cls-13" d="M225.34,266.6s-3.2-21.5-7.47-30.27"/><path class="cls-13" d="M208.63,217.25a87,87,0,0,1,6.64,11.11"/><path class="cls-13" d="M292.94,233.3a62.1,62.1,0,0,1,3.53-10.49"/><path class="cls-13" d="M286.31,266.6s2.31-14.74,5.07-26.88"/><path class="cls-13" d="M290.23,245.92a17,17,0,0,1,8.95-6.12"/><path class="cls-13" d="M268,199.49s18.64,7.45,30.67,11.67c0,0,14.8,13.92,30.66,62.13,0,0-14.54,24.46-42.2,32.3"/><path class="cls-13" d="M291.9,283l13.36-11.15s7.07-5.38,14.42-1.7"/><path class="cls-13" d="M291.38,244.57s11.05,16.28,13.88,27.31"/><path class="cls-13" d="M215.87,275.61,212,271.88s-5.8-1-12.37,3.39"/><path class="cls-13" d="M212,271.88s4.86-16,9.65-24.19"/><path class="cls-13" d="M233,201.45s-26.81,10.06-29.44,13-12.62,59.19-12.88,65.63c-.24,5.76,20.65,18.69,31,24.14"/><path class="cls-6" d="M253,220.46a1.77,1.77,0,1,1-1.76-1.77A1.76,1.76,0,0,1,253,220.46Z"/><path class="cls-6" d="M284,314.68H223a1.44,1.44,0,0,1-1.43-1.44h0a1.43,1.43,0,0,1,1.43-1.43h61a1.43,1.43,0,0,1,1.43,1.43h0A1.44,1.44,0,0,1,284,314.68Z"/><path class="cls-5" d="M286.17,309.93l8.18-38.4a4.08,4.08,0,0,0-4-4.93H219.06a4.08,4.08,0,0,0-4,4.87l7.33,37.13a4.08,4.08,0,0,0,3.92,3.29l55.78,1.28A4.1,4.1,0,0,0,286.17,309.93Z"/><path class="cls-6" d="M260.15,288.73a5.69,5.69,0,1,1-5.69-5.7A5.69,5.69,0,0,1,260.15,288.73Z"/><line class="cls-13" x1="271.34" y1="270.24" x2="279.81" y2="270.24"/><line class="cls-13" x1="230.89" y1="270.24" x2="263.04" y2="270.24"/><path class="cls-6" d="M286.31,350.67l-6.5,17.06s-16.57-4.18-37.81-8.53c-22.2-4.55-45.39-10.44-57.42-31.55-1.47-2.57-2.45-5.61-1.76-8.49,1.74-7.29,11.22-9.27,17.47-10a113.92,113.92,0,0,1,11.83-.66c2,0,8.65-1.09,10.26.1a47.44,47.44,0,0,0,7.72,4.57c3.55,1.51,55.36-1.36,55.36-1.36a18.49,18.49,0,0,0,1.63-6.22c8.15-4.14,27-7.64,35-6.09,12.53,2.43,19.84,9.74,18.45,17.4S311.47,345.1,286.31,350.67Z"/><path class="cls-18" d="M286.31,350.67s-15.76-4.18-28.64-12.88-23-18.8-40.89-16.71"/><path class="cls-18" d="M254.7,335.74c8.14-2.34,14.11-7.61,20.64-12.66a139.38,139.38,0,0,1,22.09-14.52"/><line class="cls-13" x1="251.84" y1="167.95" x2="254.23" y2="167.95"/><path class="cls-19" d="M295.68,176.09H277.06a4.38,4.38,0,0,0-4.38,4.38v9.06a4.38,4.38,0,0,0,4.38,4.37h4.87l5.07,8.36,3.81-8.36h4.87a4.37,4.37,0,0,0,4.37-4.37v-9.06A4.38,4.38,0,0,0,295.68,176.09Z"/><path class="cls-6" d="M283.82,182.86V184c0,1.34-.65,2.07-2,2.07h-.63v3.16h-1.32v-8.4h1.95C283.17,180.78,283.82,181.51,283.82,182.86Zm-2.59-.88v2.84h.63c.42,0,.64-.19.64-.79v-1.26c0-.6-.22-.79-.64-.79Z"/><path class="cls-6" d="M285.81,189.18H284.5v-8.4h1.31v3.6h1.5v-3.6h1.35v8.4h-1.35v-3.6h-1.5Z"/><path class="cls-6" d="M293.53,182.86V184c0,1.34-.65,2.07-2,2.07h-.62v3.16h-1.32v-8.4h1.94C292.88,180.78,293.53,181.51,293.53,182.86Zm-2.59-.88v2.84h.62c.42,0,.65-.19.65-.79v-1.26c0-.6-.23-.79-.65-.79Z"/><path class="cls-20" d="M350.55,206.77H330.83a4.63,4.63,0,0,0-4.63,4.64V221a4.63,4.63,0,0,0,4.63,4.63H336l1.51,8.86,7.9-8.86h5.16a4.63,4.63,0,0,0,4.63-4.63v-9.59A4.63,4.63,0,0,0,350.55,206.77Z"/><text class="cls-21" transform="translate(333.19 219.76)">Git</text><path class="cls-22" d="M354.45,162.66H334.74a4.64,4.64,0,0,0-4.64,4.63v9.6a4.63,4.63,0,0,0,4.64,4.63h5.15l3.91,8.85,5.5-8.85h5.15a4.63,4.63,0,0,0,4.64-4.63v-9.6A4.64,4.64,0,0,0,354.45,162.66Z"/><text class="cls-21" transform="translate(339.6 175.43)">Js</text></g></g></svg>