<svg xmlns="http://www.w3.org/2000/svg" viewBox="0 0 408.35 368.45"><defs><style>.cls-1{fill:#f5f5f5;}.cls-2,.cls-4{fill:#e0e0e0;}.cls-11,.cls-3{fill:#fafafa;}.cls-11,.cls-4{fill-rule:evenodd;}.cls-5{fill:#263238;}.cls-6{fill:#e8505b;}.cls-7{opacity:0.8;}.cls-8{fill:#ff3108;}.cls-9{fill:#ff562d;}.cls-10{fill:none;}.cls-12{fill:#fff;}.cls-13{fill:#455a64;}</style></defs><g id="Layer_2" data-name="Layer 2"><g id="Background_Complete" data-name="Background Complete"><path class="cls-1" d="M367.87,85l-19.37-.09a4.81,4.81,0,0,0-4.72,4.89l0,3.52A4.81,4.81,0,0,1,339,98.18L301.29,98a4.83,4.83,0,0,1-4.68-4.94l0-3.52A4.81,4.81,0,0,0,292,84.62l-6.81,0-16.95-.08a15.23,15.23,0,0,0-15.31,15.17l-1,244.41A15.23,15.23,0,0,0,267,359.4l99.68.46A15.24,15.24,0,0,0,382,344.68l1-244.41A15.23,15.23,0,0,0,367.87,85Z"/><path class="cls-2" d="M354.45,327.25l-74.12-.34c-.77,0-1.39-.84-1.38-1.87l.08-19.39c0-1,.63-1.85,1.4-1.85l74.12.34c.77,0,1.39.84,1.38,1.87l-.08,19.39C355.85,326.43,355.22,327.26,354.45,327.25Z"/><path class="cls-3" d="M300.82,317.17l.23-.47a2.69,2.69,0,0,0,1.83.71c1,0,1.5-.45,1.5-1,0-1.6-3.42-.63-3.41-2.78,0-.86.64-1.59,2.06-1.59a3.1,3.1,0,0,1,1.72.53l-.2.49a2.74,2.74,0,0,0-1.53-.49c-1,0-1.47.46-1.47,1,0,1.6,3.42.65,3.41,2.77,0,.85-.66,1.58-2.08,1.57A2.92,2.92,0,0,1,300.82,317.17Z"/><path class="cls-3" d="M306.26,312.09h.59l0,5.81h-.59Z"/><path class="cls-3" d="M313.3,312.12l0,5.81h-.48l-3.55-4.73,0,4.71h-.59l0-5.81h.48l3.56,4.73,0-4.71Z"/><path class="cls-3" d="M319,315.05h.56v2.21a2.92,2.92,0,0,1-2,.73,3,3,0,0,1,0-5.91,2.66,2.66,0,0,1,2.06.85l-.36.39a2.18,2.18,0,0,0-1.67-.69,2.41,2.41,0,0,0,0,4.81A2.28,2.28,0,0,0,319,317Z"/><path class="cls-3" d="M323.27,315.5v-3.33h.59l0,3.3c0,1.38.61,2,1.69,2s1.71-.62,1.72-2v-3.3h.57v3.33c0,1.67-.87,2.53-2.29,2.52S323.26,317.17,323.27,315.5Z"/><path class="cls-3" d="M334,314.21c0,1.24-.86,2-2.27,2h-1.5V318h-.59l0-5.81h2.08C333.1,312.21,334,313,334,314.21Zm-.58,0c0-.93-.58-1.47-1.69-1.47H330.2v2.91h1.47C332.77,315.65,333.36,315.12,333.37,314.21Z"/><rect class="cls-2" x="269.37" y="156.74" width="25.72" height="4.72" transform="translate(0.74 -1.3) rotate(0.26)"/><path class="cls-2" d="M370.51,185.75a2.3,2.3,0,0,0,.59-.14,1.56,1.56,0,0,0,1-1.34c0-1.6,0-3.91,0-6.89,0-1.5,0-3.16,0-5V171a1.85,1.85,0,0,0-.28-1.31,1.49,1.49,0,0,0-1.18-.61H369l-14.45,0-83.64-.31a1.36,1.36,0,0,0-1.1.56,1.9,1.9,0,0,0-.26,1.31c0,1,0,2,0,3q0,3,0,6c0,1,0,2,0,3a8,8,0,0,0,0,1.41,1.35,1.35,0,0,0,.78.9,1.56,1.56,0,0,0,.62.11h5.09l22.21.12,37.6.23,25.35.2,6.89.08,1.79,0c.41,0,.61,0,.61,0s-.2,0-.61,0h-1.79l-6.89,0-25.35,0-37.61-.12-22.2-.09H271a1.94,1.94,0,0,1-.81-.15,1.86,1.86,0,0,1-1.08-1.24,2.83,2.83,0,0,1-.06-.8v-.74c0-1,0-2,0-3q0-3,0-6c0-1,0-2,0-3a7.24,7.24,0,0,1,0-.79,1.86,1.86,0,0,1,.34-.82,1.89,1.89,0,0,1,1.52-.77l83.64.46,14.45.11h1.56a1.76,1.76,0,0,1,1.4.74,2.11,2.11,0,0,1,.32,1.46c0,.48,0,.94,0,1.4,0,1.82,0,3.48,0,5,0,3-.07,5.3-.09,6.9a1.6,1.6,0,0,1-1.05,1.38A1.2,1.2,0,0,1,370.51,185.75Z"/><rect class="cls-2" x="276.27" y="174.94" width="47.04" height="4.41" transform="translate(0.82 -1.38) rotate(0.26)"/><rect class="cls-2" x="269.19" y="199.8" width="25.72" height="4.72" transform="translate(0.94 -1.3) rotate(0.26)"/><path class="cls-2" d="M369.85,228.81a3.35,3.35,0,0,0,.6-.11,2.09,2.09,0,0,0,1.26-1.13,2.8,2.8,0,0,0,.18-1.27c0-.48,0-1,0-1.59,0-1.15,0-2.47,0-4v-6.36a2.16,2.16,0,0,0-.29-1.32,2,2,0,0,0-1.09-.84,6.63,6.63,0,0,0-1.51-.09l-14.39,0-83.35-.31a1.84,1.84,0,0,0-1.83,1.61c0,1,0,2,0,3q0,3,0,6c0,1,0,2,0,3a5.76,5.76,0,0,0,.06,1.4,1.84,1.84,0,0,0,.73,1,2,2,0,0,0,1.24.32h4.35l22.13.12,37.47.23,25.26.2,6.87.08,1.79,0c.4,0,.6,0,.6,0s-.2,0-.61,0h-1.78l-6.87,0-25.26,0-37.47-.12-22.14-.09h-4.34a2.58,2.58,0,0,1-1.53-.41,2.42,2.42,0,0,1-.94-1.32,6.22,6.22,0,0,1-.08-1.53c0-1,0-2,0-3,0-2,0-4,0-6,0-1,0-2,0-3a2.36,2.36,0,0,1,2.35-2.07l83.35.46,14.39.1a6.7,6.7,0,0,1,1.6.11,2.25,2.25,0,0,1,1.23,1,2.41,2.41,0,0,1,.32,1.46c0,.48,0,.94,0,1.39,0,1.82,0,3.48,0,5s0,2.81-.05,4c0,.58,0,1.11,0,1.59a2.87,2.87,0,0,1-.21,1.31,2.09,2.09,0,0,1-1.35,1.14A1.58,1.58,0,0,1,369.85,228.81Z"/><rect class="cls-2" x="269" y="244.71" width="25.72" height="4.72" transform="translate(1.14 -1.29) rotate(0.26)"/><path class="cls-2" d="M369.66,273.73a5.17,5.17,0,0,0,.6-.11,2.08,2.08,0,0,0,1.26-1.14,2.8,2.8,0,0,0,.18-1.27c0-.48,0-1,0-1.58,0-1.16,0-2.48,0-4v-6.35a2.15,2.15,0,0,0-.29-1.32,1.94,1.94,0,0,0-1.09-.85,6.13,6.13,0,0,0-1.51-.08l-14.39,0-83.35-.31a1.85,1.85,0,0,0-1.83,1.61c0,.95,0,2,0,3q0,3,0,6c0,1,0,2,0,3a5.74,5.74,0,0,0,.06,1.4,1.84,1.84,0,0,0,.73,1,2,2,0,0,0,1.24.32h1.46l2.89,0,22.13.11,37.47.23,25.26.2,6.87.08,1.78,0c.41,0,.61,0,.61,0l-.61,0-1.78,0-6.87,0-25.26,0-37.47-.12-22.14-.08-2.89,0h-1.45a2.51,2.51,0,0,1-1.53-.41,2.4,2.4,0,0,1-.94-1.31,6.3,6.3,0,0,1-.08-1.54c0-1,0-2,0-3q0-3,0-6c0-1,0-2,0-3.05a2.37,2.37,0,0,1,2.35-2.07l83.35.46,14.39.11a5.78,5.78,0,0,1,1.6.11,2.21,2.21,0,0,1,1.23,1,2.41,2.41,0,0,1,.32,1.46c0,.47,0,.93,0,1.39,0,1.81,0,3.47,0,5s0,2.81,0,4c0,.57,0,1.1,0,1.58a2.94,2.94,0,0,1-.21,1.32,2.12,2.12,0,0,1-1.35,1.14A1.88,1.88,0,0,1,369.66,273.73Z"/><rect class="cls-2" x="276.09" y="218" width="47.04" height="4.41" transform="translate(1.02 -1.38) rotate(0.26)"/><path class="cls-2" d="M280.37,265.56a2.06,2.06,0,1,1-2.05-2.2A2.13,2.13,0,0,1,280.37,265.56Z"/><path class="cls-2" d="M286.74,265.59a2.06,2.06,0,1,1-2-2.2A2.13,2.13,0,0,1,286.74,265.59Z"/><path class="cls-2" d="M293.12,265.62a2.06,2.06,0,1,1-2.05-2.2A2.14,2.14,0,0,1,293.12,265.62Z"/><path class="cls-2" d="M299.49,265.65a2.06,2.06,0,1,1-4.11,0,2.06,2.06,0,1,1,4.11,0Z"/><path class="cls-2" d="M305.86,265.68a2.06,2.06,0,1,1-2.05-2.2A2.12,2.12,0,0,1,305.86,265.68Z"/><path class="cls-2" d="M312.23,265.71a2.06,2.06,0,1,1-2-2.2A2.12,2.12,0,0,1,312.23,265.71Z"/><path class="cls-2" d="M318.61,265.74a2.06,2.06,0,1,1-2.05-2.2A2.13,2.13,0,0,1,318.61,265.74Z"/><path class="cls-2" d="M325,265.77a2.06,2.06,0,1,1-2.05-2.2A2.13,2.13,0,0,1,325,265.77Z"/><path class="cls-2" d="M331.35,265.8a2.06,2.06,0,1,1-2-2.2A2.12,2.12,0,0,1,331.35,265.8Z"/><path class="cls-2" d="M322.3,121.43a3.86,3.86,0,0,0,2.31-3.58,3.64,3.64,0,1,0-7.27,0,3.86,3.86,0,0,0,2.32,3.62c-5.6.85-5.35,6.93-5.35,6.93l13.24.06S327.85,122.27,322.3,121.43Z"/><rect class="cls-2" x="296.6" y="132.29" width="47.19" height="5.64" transform="translate(0.63 -1.48) rotate(0.26)"/><path class="cls-4" d="M149.51,32.23A36.3,36.3,0,0,1,156.42,39l8.81-1.61L171.05,51l-7.26,5.26a36.29,36.29,0,0,1,.11,9.66L171.26,71l-5.52,13.76-8.85-1.42a36.54,36.54,0,0,1-6.76,6.9l1.61,8.82-13.63,5.81-5.26-7.26a36.29,36.29,0,0,1-9.66.11l-5.09,7.37-13.76-5.53,1.42-8.84A36.29,36.29,0,0,1,98.86,84L90,85.58,84.22,72l7.26-5.25a36.79,36.79,0,0,1-.1-9.67L84,51.94l5.53-13.75,8.84,1.42a36.3,36.3,0,0,1,6.76-6.91l-1.6-8.81,13.63-5.82,5.25,7.26a36.37,36.37,0,0,1,9.67-.11l5.09-7.36,13.75,5.52-1.42,8.85ZM134.19,47A15.9,15.9,0,1,0,143,67.66,15.89,15.89,0,0,0,134.19,47Z"/><rect class="cls-2" x="266.05" width="118.15" height="30.86" rx="3.93"/><path class="cls-3" d="M284.88,16.36a3.9,3.9,0,0,0,2.31-3.59,3.65,3.65,0,1,0-7.28,0,3.89,3.89,0,0,0,2.32,3.62,5.82,5.82,0,0,0-4.93,4.23,8.3,8.3,0,0,0,5.05,2.72h2.24a8.25,8.25,0,0,0,5.13-2.74A5.72,5.72,0,0,0,284.88,16.36Z"/><rect class="cls-3" x="299.46" y="8.02" width="29.09" height="2.18"/><rect class="cls-3" x="299.46" y="20.35" width="50.96" height="2.18"/><rect class="cls-3" x="299.46" y="14.04" width="73.85" height="2.18"/></g><g id="Floor"><path class="cls-5" d="M408.07,368.1c0,.14-91.35.26-204,.26S0,368.24,0,368.1s91.34-.26,204.05-.26S408.07,368,408.07,368.1Z"/></g><g id="Plants"><path class="cls-6" d="M380.22,349.46c-.67-2.67,1.09-5.33,3.06-7.25s4.32-3.64,5.35-6.19c1.67-4.12-.52-9.49,2.32-12.93,1.67-2,4.64-2.68,6.12-4.85a11,11,0,0,0,1.34-3.87,39.55,39.55,0,0,1,9.9-18.27,34.11,34.11,0,0,1-3.94,17.64c-1.15,2.17-2.56,4.28-3,6.7-.63,3.93,1.54,8,.55,11.85-1.13,4.41-6.11,7.34-6.37,11.88-.22,3.84,3.11,7.24,2.84,11.08a10.36,10.36,0,0,1-1.73,4.55c-3,4.92-7.39,8.3-14,8.15l-8.1.24Z"/><g class="cls-7"><path class="cls-8" d="M380.22,349.46c-.67-2.67,1.09-5.33,3.06-7.25s4.32-3.64,5.35-6.19c1.67-4.12-.52-9.49,2.32-12.93,1.67-2,4.64-2.68,6.12-4.85a11,11,0,0,0,1.34-3.87,39.55,39.55,0,0,1,9.9-18.27,34.11,34.11,0,0,1-3.94,17.64c-1.15,2.17-2.56,4.28-3,6.7-.63,3.93,1.54,8,.55,11.85-1.13,4.41-6.11,7.34-6.37,11.88-.22,3.84,3.11,7.24,2.84,11.08a10.36,10.36,0,0,1-1.73,4.55c-3,4.92-7.39,8.3-14,8.15l-8.1.24Z"/></g><path class="cls-5" d="M372.94,368.39a6.32,6.32,0,0,1-2.23-.06,13.64,13.64,0,0,1-2.63-.68,10.94,10.94,0,0,1-3.24-1.8,4.43,4.43,0,0,1-1.33-1.79,8.69,8.69,0,0,1-.37-2.42A24,24,0,0,0,363,359a7.18,7.18,0,0,0-1-2.61c-.94-1.68-2.52-3.28-3-5.56s-.13-4.67.26-7.11.77-5.07-.15-7.61-2.62-4.84-3.49-7.7-.44-6-.61-9.06a11.82,11.82,0,0,0-1-4.51c-.65-1.44-1.55-2.79-2.25-4.31-1.42-3.06-1.65-6.52-2-9.92-.18-1.71-.36-3.44-.55-5.18a25.36,25.36,0,0,0-.87-5.19,47.47,47.47,0,0,0-1.91-5,16.91,16.91,0,0,1-.93-2.62,26.71,26.71,0,0,1-.24-2.79,33,33,0,0,1,.24-5.61c.23-1.87.58-3.72.79-5.6l0-.32.05-.37.33.17a12.43,12.43,0,0,1,4.34,3.7,19.77,19.77,0,0,1,2.65,5c1.34,3.49,1.8,7.14,2.47,10.63a28.75,28.75,0,0,0,3.27,9.82c.88,1.45,1.95,2.77,2.88,4.19a11.45,11.45,0,0,1,2,4.63c.46,3.43-1.45,6.43-1.07,9.47a10.46,10.46,0,0,0,1.45,4.21c.73,1.3,1.59,2.51,2.4,3.72a23.47,23.47,0,0,1,2.16,3.75,12,12,0,0,1,1,4.07c.18,2.74-.22,5.33,0,7.78a17.74,17.74,0,0,0,2,6.67c1,2,2.05,3.81,2.95,5.56.46.88.87,1.73,1.22,2.59a12.76,12.76,0,0,1,.69,2.57,16.38,16.38,0,0,1,0,4.63,11.6,11.6,0,0,1-2.36,5.88,5.15,5.15,0,0,1-.66.71,3.75,3.75,0,0,1-.53.45c-.3.22-.47.32-.47.32a10,10,0,0,0,1.58-1.54,11.83,11.83,0,0,0,2.24-5.85,16.36,16.36,0,0,0-.08-4.56,13.29,13.29,0,0,0-.7-2.51,28.11,28.11,0,0,0-1.23-2.55c-.91-1.74-2-3.54-3-5.56a18.26,18.26,0,0,1-2-6.79c-.2-2.5.19-5.1,0-7.77a11.39,11.39,0,0,0-1-3.93,22.47,22.47,0,0,0-2.13-3.68c-.81-1.2-1.68-2.41-2.43-3.74a11,11,0,0,1-1.52-4.39c-.37-3.23,1.52-6.25,1.05-9.44a10.84,10.84,0,0,0-1.92-4.43c-.91-1.39-2-2.72-2.89-4.2a29.13,29.13,0,0,1-3.35-10c-.67-3.51-1.14-7.12-2.45-10.54a19,19,0,0,0-2.59-4.82,12,12,0,0,0-4.15-3.56l.37-.2,0,.32c-.21,1.9-.56,3.76-.79,5.6a33.14,33.14,0,0,0-.25,5.53,26,26,0,0,0,.24,2.7,15.86,15.86,0,0,0,.89,2.53,47.46,47.46,0,0,1,1.93,5.09,26.14,26.14,0,0,1,.88,5.27c.18,1.75.37,3.48.55,5.19.36,3.41.6,6.81,2,9.77.67,1.47,1.57,2.83,2.24,4.32a12.4,12.4,0,0,1,1.06,4.67c.16,3.13-.26,6.19.57,9s2.58,5.08,3.45,7.7.53,5.38.13,7.8-.81,4.81-.3,7,2,3.76,3,5.5a7.6,7.6,0,0,1,1,2.71,25,25,0,0,1,.15,2.66,8.46,8.46,0,0,0,.33,2.36A4.42,4.42,0,0,0,365,365.7a11.26,11.26,0,0,0,3.17,1.81,14.2,14.2,0,0,0,2.59.72,12,12,0,0,0,1.65.17C372.75,368.38,372.94,368.39,372.94,368.39Z"/><path class="cls-5" d="M347.87,272.75a.76.76,0,0,1,.08.25c.05.19.1.43.18.73.15.64.34,1.6.63,2.81s1,2.56,1.66,4.24,1.3,3.6,1.9,5.76,1.14,4.57,1.7,7.15a29.86,29.86,0,0,0,2.55,7.93c.65,1.32,1.39,2.65,2,4.12a19.06,19.06,0,0,1,1.14,4.65,93.5,93.5,0,0,0,1.69,9.82L365.86,339l3.75,15.29c1.05,4.33,1.89,7.85,2.49,10.33.28,1.19.49,2.13.65,2.81l.16.74a.79.79,0,0,1,0,.25.75.75,0,0,1-.08-.24l-.21-.72q-.27-1-.75-2.79c-.63-2.47-1.53-6-2.64-10.29s-2.42-9.53-3.87-15.27-2.91-12.1-4.52-18.76a94.66,94.66,0,0,1-1.69-9.86,18.71,18.71,0,0,0-1.09-4.54c-.57-1.42-1.3-2.75-1.95-4.09a30.11,30.11,0,0,1-2.55-8.05c-.54-2.58-1-5-1.63-7.14s-1.19-4.09-1.81-5.75-1.29-3.06-1.58-4.3-.42-2.19-.55-2.84c0-.3-.09-.54-.12-.74A.86.86,0,0,1,347.87,272.75Z"/><path class="cls-9" d="M371.51,368.41c-5.27-3.18-6.74-12.74-4.5-18.48s6.14-11,6.77-17.09c.48-4.71-1-9.56.09-14.16,1.52-6.2,7.61-11,7.58-17.37,0-3.59-2-7-1.86-10.56.23-4.39,3.62-7.85,5.73-11.71,3.23-5.91,3.48-12.91,4.61-19.55s3.7-13.73,9.61-17c.84,5.64,2.3,9.51,1.79,17.15-.18,2.74-3.4,8-3.87,14-.28,3.59-.48,7.19-.72,10.78s-.48,7.06-1.75,10.33c-1,2.5-2.53,4.77-3.26,7.36-1.37,4.87.36,10.15-.75,15.08-.94,4.18-3.86,7.77-4.48,12-.86,6,3,12.17,1,17.85-1,2.81-3.33,5.06-4,8-.52,2.26,0,4.66-.45,6.92-.77,3.66-7.76,6.46-11.49,6.21"/><path class="cls-5" d="M398.05,248.12a1.29,1.29,0,0,1,0,.32l-.12.92c-.13.82-.27,2-.55,3.56s-1.12,3.3-1.77,5.4-1.38,4.53-2,7.24-1.14,5.72-1.69,8.95a37.13,37.13,0,0,1-2.77,10.12c-.75,1.68-1.59,3.37-2.23,5.18a23.15,23.15,0,0,0-1.15,5.71,114.15,114.15,0,0,1-1.62,12.32l-4.71,23.54c-1.52,7.2-2.89,13.69-4.05,19.16s-2.11,9.83-2.77,12.91c-.33,1.5-.6,2.67-.78,3.51-.09.37-.16.67-.22.9a1.31,1.31,0,0,1-.09.31,1.92,1.92,0,0,1,0-.32c0-.23.1-.53.17-.92.16-.84.39-2,.68-3.52.62-3.09,1.52-7.51,2.61-13s2.46-12,3.94-19.18,3-15.18,4.67-23.53a115.31,115.31,0,0,0,1.62-12.28,24.05,24.05,0,0,1,1.19-5.83c.66-1.84,1.51-3.54,2.26-5.21a37.21,37.21,0,0,0,2.79-10c.56-3.23,1.11-6.24,1.76-9a73.77,73.77,0,0,1,2.06-7.25c.69-2.11,1.52-3.84,1.85-5.36s.49-2.72.64-3.52c.08-.38.14-.69.18-.92A1.11,1.11,0,0,1,398.05,248.12Z"/></g><g id="Gears"><path class="cls-10" d="M206.42,15.41a20.6,20.6,0,0,1,3.94,3.86l5-.92,3.32,7.78-4.14,3a20.73,20.73,0,0,1,.06,5.51l4.21,2.91-3.16,7.85-5-.81a21.19,21.19,0,0,1-3.86,3.94l.91,5-7.78,3.32-3-4.15a20.8,20.8,0,0,1-5.52.06L188.5,57l-7.85-3.16.81-5a20.6,20.6,0,0,1-3.94-3.86l-5,.92-3.32-7.78,4.14-3a20.8,20.8,0,0,1-.06-5.52l-4.2-2.9,3.15-7.85,5.05.81a20.31,20.31,0,0,1,3.86-3.94l-.92-5L188,7.33l3,4.14a20.8,20.8,0,0,1,5.52-.06l2.9-4.2,7.85,3.15-.81,5.05Zm-8.74,8.42a9.07,9.07,0,1,0,5,11.8A9.07,9.07,0,0,0,197.68,23.83Z"/><path class="cls-5" d="M197.68,23.83a6.65,6.65,0,0,1,2,1,9.07,9.07,0,0,1,3.53,5,9.25,9.25,0,0,1-2,8.66,8.84,8.84,0,0,1-2,1.73,8.66,8.66,0,0,1-2.57,1.09,9.24,9.24,0,0,1-10.23-4.11A9.17,9.17,0,0,1,185,31.93a9.2,9.2,0,0,1,4.56-7.63,9,9,0,0,1,6-1.14,6.89,6.89,0,0,1,2.15.67,21.31,21.31,0,0,0-2.17-.47,9.07,9.07,0,0,0-5.76,1.26,8.83,8.83,0,0,0-2.92,2.86,8.93,8.93,0,0,0-1.35,4.46,8.14,8.14,0,0,0,.29,2.53,8.32,8.32,0,0,0,1,2.42,8.78,8.78,0,0,0,9.68,3.89,8.21,8.21,0,0,0,2.43-1,8.34,8.34,0,0,0,2-1.62,8.89,8.89,0,0,0,2-8.24A9,9,0,0,0,199.57,25,21.44,21.44,0,0,0,197.68,23.83Z"/><path class="cls-5" d="M206.42,15.41s0-.11,0-.32.07-.55.13-1c.13-.88.32-2.14.56-3.78l0,.09-7.86-3.11.15,0-2.88,4.22-.06.07h-.09a21,21,0,0,0-5.47.08l-.1,0-.06-.09-3-4.13.22.06-7.77,3.34.12-.23c.29,1.56.6,3.27.93,5l0,.13-.1.08a20.19,20.19,0,0,0-3.81,3.9l-.08.11-.14,0-5.05-.8.26-.14c-1,2.46-2.06,5.12-3.15,7.85l-.09-.29,4.21,2.9.12.09v.14a20.79,20.79,0,0,0,.06,5.45l0,.15-.12.09-4.14,3,.08-.3c1,2.46,2.18,5.1,3.33,7.77l-.29-.15,5-.92.16,0,.09.13a21,21,0,0,0,3.89,3.81h0c0,.11-.1-.25.1.25h0V49l0,.16,0,.32-.1.63-.2,1.27c-.14.84-.27,1.68-.41,2.51l-.16-.28,7.85,3.16-.3.09c1-1.41,1.94-2.82,2.9-4.2l.09-.13.15,0a20.28,20.28,0,0,0,5.45-.06l.15,0,.09.12q1.51,2.12,3,4.15l-.3-.08,7.78-3.32-.14.27c-.31-1.71-.61-3.39-.91-5l0-.14.11-.09a20.42,20.42,0,0,0,3.83-3.89l.08-.11.13,0,5.05.82-.24.13c1.12-2.75,2.17-5.36,3.17-7.84l.07.24-4.19-2.92-.1-.06,0-.11a20.76,20.76,0,0,0,0-5.47v-.1l.08-.06,4.15-3-.05.19c-1.27-3-2.36-5.59-3.28-7.8l.12.07-5,.89h0l0,0a20.79,20.79,0,0,0-2.84-3l-.78-.67-.26-.22a2,2,0,0,1,.29.19c.18.13.46.34.81.63a20.39,20.39,0,0,1,2.91,3l-.08,0,5-.95h.09l0,.08,3.36,7.77,0,.11-.1.07-4.13,3,.07-.16a21,21,0,0,1,.08,5.56l-.08-.17L219,37.38l.13.09-.06.15-3.14,7.86-.06.16-.17,0-5.05-.8.22-.09a21,21,0,0,1-3.9,4l.09-.23.92,5,0,.19-.17.08L200,57.1l-.18.08-.12-.16-3-4.14.24.1a20.82,20.82,0,0,1-5.58.07l.24-.11-2.9,4.2-.12.17-.19-.07-7.85-3.16-.19-.07,0-.21c.13-.83.27-1.67.4-2.51L181,50l.1-.63.05-.32,0-.16v-.14h0c.2.5.06.13.1.25h0a20.82,20.82,0,0,1-4-3.9l.26.09-5,.92-.2,0-.08-.19-3.32-7.78-.08-.19.17-.12,4.14-3-.1.24a21.42,21.42,0,0,1-.06-5.59l.11.24-4.2-2.91-.16-.11.07-.18L172,18.72l.06-.17.19,0,5,.82-.21.09a20.49,20.49,0,0,1,3.9-4l-.08.21c-.31-1.76-.62-3.48-.9-5l0-.17.15-.06,7.78-3.3L188,7.1l.09.12,3,4.15-.16-.07a21.17,21.17,0,0,1,5.56,0l-.15.07,2.93-4.2.06-.08.09,0,7.84,3.19.06,0v.06c-.28,1.63-.5,2.87-.65,3.74-.07.41-.13.73-.17,1A1.49,1.49,0,0,1,206.42,15.41Z"/><path class="cls-11" d="M313.83,211.38a26.18,26.18,0,0,1,5,4.88l6.37-1.16,4.19,9.84-5.24,3.79a25.87,25.87,0,0,1,.08,7l5.32,3.67-4,9.93-6.38-1a26.24,26.24,0,0,1-4.88,5l1.16,6.36-9.84,4.2-3.79-5.24a26.29,26.29,0,0,1-7,.07L291.16,264l-9.93-4,1-6.38a26.18,26.18,0,0,1-5-4.88l-6.36,1.16-4.2-9.84,5.24-3.79a26.21,26.21,0,0,1-.08-7l-5.32-3.68,4-9.93,6.39,1a25.94,25.94,0,0,1,4.88-5l-1.16-6.36,9.84-4.2,3.79,5.24a26.21,26.21,0,0,1,7-.07l3.68-5.32,9.92,4-1,6.38ZM302.77,222A11.48,11.48,0,1,0,309.14,237,11.48,11.48,0,0,0,302.77,222Z"/><path class="cls-10" d="M313.83,211.38a26.18,26.18,0,0,1,5,4.88l6.37-1.16,4.19,9.84-5.24,3.79a25.87,25.87,0,0,1,.08,7l5.32,3.67-4,9.93-6.38-1a26.24,26.24,0,0,1-4.88,5l1.16,6.36-9.84,4.2-3.79-5.24a26.29,26.29,0,0,1-7,.07L291.16,264l-9.93-4,1-6.38a26.18,26.18,0,0,1-5-4.88l-6.36,1.16-4.2-9.84,5.24-3.79a26.21,26.21,0,0,1-.08-7l-5.32-3.68,4-9.93,6.39,1a25.94,25.94,0,0,1,4.88-5l-1.16-6.36,9.84-4.2,3.79,5.24a26.21,26.21,0,0,1,7-.07l3.68-5.32,9.92,4-1,6.38ZM302.77,222A11.48,11.48,0,1,0,309.14,237,11.48,11.48,0,0,0,302.77,222Z"/><path class="cls-5" d="M302.77,222a9,9,0,0,1,2.53,1.29A11.63,11.63,0,0,1,310,235a11.74,11.74,0,0,1-2.74,5.52,10.86,10.86,0,0,1-2.58,2.17,11.06,11.06,0,0,1-3.23,1.38,11.64,11.64,0,0,1-12.87-5.17,10.55,10.55,0,0,1-1.38-3.23,11,11,0,0,1-.37-3.35,11.72,11.72,0,0,1,1.85-5.89,11.56,11.56,0,0,1,11.41-5.18,9.09,9.09,0,0,1,2.72.82,22,22,0,0,0-2.75-.61,11.31,11.31,0,0,0-12.75,10.87,10.37,10.37,0,0,0,.37,3.21,10.52,10.52,0,0,0,1.33,3.09,11.17,11.17,0,0,0,12.31,4.95,11.09,11.09,0,0,0,3.1-1.31,10.63,10.63,0,0,0,2.48-2.07,11.29,11.29,0,0,0,2.67-5.29,11.12,11.12,0,0,0-.16-5.19,11.41,11.41,0,0,0-4.19-6.19A20.33,20.33,0,0,0,302.77,222Z"/><path class="cls-5" d="M313.83,211.38s0-.13.05-.4.1-.69.17-1.22c.17-1.09.41-2.69.72-4.78l.05.09-9.94-3.94.16,0-3.66,5.33-.05.08h-.1a26.07,26.07,0,0,0-6.93.09l-.1,0-.06-.09-3.8-5.23.22.06-9.83,4.22.12-.23c.36,2,.76,4.14,1.17,6.36l0,.13-.1.08a26.14,26.14,0,0,0-4.83,5L277,217l-.13,0-6.38-1,.25-.14-4,9.93-.09-.29,5.32,3.67.13.09,0,.15a25.81,25.81,0,0,0,.08,6.9l0,.16-.12.08-5.24,3.8.08-.31,4.2,9.84-.28-.15,6.36-1.17.16,0,.09.12a26.29,26.29,0,0,0,4.93,4.83h0l.12.1,0,.15c-.34,2.14-.69,4.27-1,6.39l-.16-.29,9.93,4-.31.1,3.68-5.32.09-.13.15,0a25.77,25.77,0,0,0,6.91-.07l.15,0,.09.12,3.79,5.24-.3-.08,9.84-4.19-.14.26c-.39-2.16-.78-4.28-1.15-6.36l0-.14.11-.09a26,26,0,0,0,4.85-4.93l.08-.11.13,0,6.38,1-.23.13q2.12-5.23,4-9.92l.07.24-5.31-3.69-.1-.06,0-.12a26.58,26.58,0,0,0-.06-6.92l0-.11.08-.06,5.25-3.77,0,.18-4.16-9.85.13.06-6.37,1.13h-.05l0,0a26.88,26.88,0,0,0-3.6-3.82c-.43-.38-.77-.65-1-.83l-.33-.28.36.24c.23.18.57.44,1,.81a24.74,24.74,0,0,1,3.67,3.78l-.08,0,6.35-1.2h.1l0,.08,4.24,9.83,0,.11-.1.08-5.22,3.8.06-.16a26,26,0,0,1,.1,7l-.08-.18,5.32,3.67.13.09,0,.15-4,9.93-.06.16-.17,0-6.39-1,.22-.09a26.89,26.89,0,0,1-4.92,5l.09-.22q.57,3.12,1.16,6.36l0,.18-.18.08-9.84,4.21-.18.08-.11-.17-3.8-5.23.24.1a26.73,26.73,0,0,1-7,.08l.24-.11-3.67,5.32-.12.17-.19-.08-9.93-4-.19-.08,0-.21q.51-3.17,1-6.38l.1.25h0a26.75,26.75,0,0,1-5-4.93l.26.1L271,250.15l-.2,0-.08-.19-4.2-9.84-.08-.19.17-.12,5.24-3.78-.1.24a26.42,26.42,0,0,1-.07-7l.1.23-5.31-3.68-.16-.11.07-.18,4-9.93.07-.17.18,0,6.38,1-.21.08a26.42,26.42,0,0,1,4.93-5l-.08.21c-.41-2.22-.8-4.39-1.16-6.36l0-.16.16-.07,9.84-4.18.14-.06.09.12c1.32,1.85,2.6,3.62,3.78,5.25l-.17-.07a26.69,26.69,0,0,1,7-.06l-.14.07,3.69-5.31.06-.08.1,0,9.91,4,.06,0V205c-.35,2.06-.62,3.65-.81,4.73l-.21,1.22C313.87,211.24,313.83,211.38,313.83,211.38Z"/></g><g id="Device"><path class="cls-5" d="M265.79,368.1,154.86,368a24.16,24.16,0,0,1-24.15-24.17l.06-278.09a24.15,24.15,0,0,1,24.17-24.16l110.93.07A24.16,24.16,0,0,1,290,65.84l0,278.1A24.17,24.17,0,0,1,265.79,368.1Z"/><path class="cls-12" d="M265.75,51.51h-21.5A5.34,5.34,0,0,0,239,57v3.9a5.33,5.33,0,0,1-5.22,5.45l-41.92,0a5.34,5.34,0,0,1-5.22-5.46V56.92a5.35,5.35,0,0,0-5.22-5.46H155.05a16.92,16.92,0,0,0-16.93,16.92l-.06,271.44A16.92,16.92,0,0,0,155,356.73l110.7.07a16.92,16.92,0,0,0,16.93-16.92l.06-271.44A16.93,16.93,0,0,0,265.75,51.51Z"/><path class="cls-5" d="M177.35,117.66a4.28,4.28,0,0,1,.69.48l1.92,1.49.08.06-.06.08-3.9,4.56v-.22l9,9h-.32l3.84-4.22.12-.13.16.08a16.44,16.44,0,0,1,3.53,2.3,7.45,7.45,0,0,1,2.52,3.64,3.85,3.85,0,0,1,.11,1.17l0,.6-.17.57a4.34,4.34,0,0,1-.5,1.07,5.33,5.33,0,0,1-.67,1,7.14,7.14,0,0,1-4,2.46,7.77,7.77,0,0,1-4.7-.5,8.79,8.79,0,0,1-2-1.22c-.61-.49-1.1-1-1.64-1.55l-6-6-5.48-5.42-1.26-1.26a9,9,0,0,1-1.16-1.3,4.27,4.27,0,0,1-.74-3.19,6.22,6.22,0,0,1,3.34-4.37,6.73,6.73,0,0,1,6.62.3,5.54,5.54,0,0,1,.55.41c.13.1.19.15.18.16a7.86,7.86,0,0,0-3.25-1.31,6.54,6.54,0,0,0-4,.7,6,6,0,0,0-3.11,4.16,3.88,3.88,0,0,0,.71,2.91,8.68,8.68,0,0,0,1.13,1.24l1.27,1.24,5.5,5.39,6.08,6c.53.51,1,1.07,1.6,1.52a7.68,7.68,0,0,0,1.88,1.14,7.14,7.14,0,0,0,4.38.47,6.57,6.57,0,0,0,3.73-2.28,5,5,0,0,0,.63-.9,3.5,3.5,0,0,0,.45-1l.16-.51,0-.52a3.56,3.56,0,0,0-.09-1,7.08,7.08,0,0,0-2.35-3.38,16.29,16.29,0,0,0-3.42-2.25l.28-.06-3.86,4.2-.16.17-.17-.16c-3.45-3.5-6.49-6.58-9-9.06l-.1-.11.1-.11c1.61-1.82,3-3.33,4-4.47v.13L178,118.22A6.16,6.16,0,0,1,177.35,117.66Z"/><path class="cls-5" d="M197.5,150.11a8.51,8.51,0,0,0,1.62-.32,5.37,5.37,0,0,0,3.27-3.15,5.47,5.47,0,0,0,.34-1.56c0-.55,0-1.17,0-1.79,0-1.26,0-2.62-.05-4.09,0-2.94-.08-6.28-.12-10s-.09-7.75-.14-12.09c0-1.09,0-2.19,0-3.32a8.8,8.8,0,0,0-.36-3.29,5.16,5.16,0,0,0-2.1-2.56,5.53,5.53,0,0,0-3.34-.78l-31.79.29a5.14,5.14,0,0,0-5.1,5q0,4.13.06,8.11c0,5.32.08,10.45.11,15.33,0,2.45,0,4.83,0,7.14a13,13,0,0,0,.23,3.34,5.16,5.16,0,0,0,4.57,3.7c1,0,2.06,0,3.07,0l5.8,0,17.5-.06h4.76l1.24,0a1.91,1.91,0,0,1,.42,0l-.42,0-1.24,0-4.76.09-17.5.22-5.8.07c-1,0-2,0-3.1,0a5.63,5.63,0,0,1-5-4,6,6,0,0,1-.24-1.74c0-.57,0-1.14,0-1.72q0-3.48-.07-7.14c0-4.89-.09-10-.14-15.34,0-2.66,0-5.37-.06-8.11a5.65,5.65,0,0,1,5.61-5.57l31.79-.24a6,6,0,0,1,3.59.85,5.61,5.61,0,0,1,2.28,2.79,5.35,5.35,0,0,1,.35,1.76c0,.58,0,1.14,0,1.7,0,1.12,0,2.23,0,3.31,0,4.35,0,8.39.06,12.09s0,7,.05,10c0,1.46,0,2.83,0,4.09,0,.63,0,1.22,0,1.81a5.56,5.56,0,0,1-.37,1.62,5.44,5.44,0,0,1-3.43,3.17A4.24,4.24,0,0,1,197.5,150.11Z"/><rect class="cls-9" x="217.14" y="106.61" width="43.16" height="43.16" rx="5.4" transform="translate(-1.05 1.98) rotate(-0.47)"/><path class="cls-12" d="M253.46,128.13a24.58,24.58,0,0,0-.58-3.49,14.35,14.35,0,0,0-5.32-7.79A14.26,14.26,0,0,0,234.09,115a14.27,14.27,0,0,0-6.54,5,14.09,14.09,0,0,0,.14,16.75,14.28,14.28,0,0,0,6.62,4.9,14.31,14.31,0,0,0,18.63-10,25,25,0,0,0,.52-3.5.6.6,0,0,1,0,.23v.69a6.9,6.9,0,0,1-.08,1.12,11.42,11.42,0,0,1-.26,1.51,13.62,13.62,0,0,1-1.53,3.91,14.59,14.59,0,0,1-9.75,7,14.65,14.65,0,0,1-7.71-.54,14.67,14.67,0,0,1-6.87-5,14.8,14.8,0,0,1-2.94-8.66,14.62,14.62,0,0,1,2.8-8.7,13.52,13.52,0,0,1,3.08-3.14,13.8,13.8,0,0,1,3.7-2,14.69,14.69,0,0,1,7.7-.67,14.6,14.6,0,0,1,9.87,6.86,13.47,13.47,0,0,1,1.59,3.89,9.91,9.91,0,0,1,.28,1.5,6.15,6.15,0,0,1,.1,1.12c0,.27,0,.5,0,.69A.6.6,0,0,1,253.46,128.13Z"/><path class="cls-12" d="M253.54,127.15c0,.15-6.57.32-14.67.38s-14.67,0-14.68-.14,6.57-.31,14.68-.38S253.54,127,253.54,127.15Z"/><path class="cls-12" d="M239.68,142.59a2.63,2.63,0,0,1,.25-.59l.83-1.64a25.18,25.18,0,0,0,1.23-2.64,29.25,29.25,0,0,0,1.34-3.6,22.65,22.65,0,0,0,1.13-9.86,17,17,0,0,0-1.78-5.58,13.85,13.85,0,0,0-4.1-4.7l.3,0c-.23.18-.47.4-.71.62a21.29,21.29,0,0,0-6.43,10.61,14.64,14.64,0,0,0,1.35,10c.31.66.7,1.25,1,1.82s.72,1.07,1.09,1.53l1,1.26.93,1c.55.62,1,1,1.34,1.36s.47.47.45.49a3.51,3.51,0,0,1-.52-.42c-.32-.29-.84-.69-1.41-1.28l-1-1L235,138.68c-.38-.46-.73-1-1.13-1.53s-.76-1.16-1.09-1.83a15,15,0,0,1-1.49-10.23,21.57,21.57,0,0,1,6.55-10.89c.24-.23.49-.45.73-.65l.15-.12.15.11a14.15,14.15,0,0,1,4.28,4.9,17.25,17.25,0,0,1,1.8,5.76,22.72,22.72,0,0,1-1.25,10,28.29,28.29,0,0,1-1.43,3.61,21.61,21.61,0,0,1-1.32,2.61c-.37.66-.67,1.19-.91,1.6A3.06,3.06,0,0,1,239.68,142.59Z"/><path class="cls-5" d="M198.39,323.13a8.36,8.36,0,0,0,1.61-.32,5.41,5.41,0,0,0,3.28-3.15,5.84,5.84,0,0,0,.34-1.56c0-.56,0-1.17,0-1.8,0-1.25,0-2.62-.05-4.09,0-2.94-.08-6.28-.13-10s-.08-7.74-.13-12.09c0-1.08,0-2.19,0-3.31a8.86,8.86,0,0,0-.36-3.3,5.14,5.14,0,0,0-2.1-2.55,5.46,5.46,0,0,0-3.34-.78l-31.79.28a5.21,5.21,0,0,0-3.6,1.51,5.14,5.14,0,0,0-1.5,3.55c0,2.74,0,5.45.06,8.1,0,5.32.07,10.45.11,15.34,0,2.44,0,4.82.05,7.14a13,13,0,0,0,.23,3.34,5.19,5.19,0,0,0,4.57,3.7c1,0,2.06,0,3.06,0l5.8,0,17.51-.06h6l.42,0-.42,0-1.24,0-4.76.09-17.5.23-5.8.06c-1,0-2,.05-3.1,0a5.6,5.6,0,0,1-5-4,5.65,5.65,0,0,1-.24-1.73c0-.57,0-1.15,0-1.73,0-2.31-.05-4.7-.07-7.14,0-4.89-.09-10-.14-15.33q0-4-.07-8.12a5.67,5.67,0,0,1,5.62-5.57l31.79-.24a6,6,0,0,1,3.59.86,5.62,5.62,0,0,1,2.28,2.79,5.29,5.29,0,0,1,.35,1.75c0,.58,0,1.14,0,1.7,0,1.13,0,2.23,0,3.32,0,4.34.05,8.39.07,12.09s0,7,0,10c0,1.47,0,2.83,0,4.09,0,.64,0,1.22,0,1.82a5.44,5.44,0,0,1-3.8,4.79A4.5,4.5,0,0,1,198.39,323.13Z"/><path class="cls-5" d="M168.23,291.6a2.56,2.56,0,0,1,.47,0l1.43,0,5.45-.11,19.33-.27h.24v.24c0,5.76.12,12.22.18,19,.06-.06-.49.5-.26.26h-3.7l-3.63,0-7,.05-12.39.06h-.21v-.21c0-5.77,0-10.54,0-13.92,0-1.61,0-2.89,0-3.81,0-.4,0-.73,0-1a2.06,2.06,0,0,1,0-.33,2.08,2.08,0,0,1,0,.37q0,.4,0,1c0,.94.05,2.23.09,3.86.05,3.35.13,8.07.22,13.79l-.21-.21,12.39-.14,6.95-.06,3.63,0h3.7c.24-.23-.3.32-.25.26-.05-6.81-.09-13.28-.13-19l.24.23-19.18,0-5.51,0h-1.47Z"/><path class="cls-5" d="M181.67,303.66a1.66,1.66,0,0,1,.25-.27l.72-.7,2.68-2.58,9.43-8.9.17.41-13.34.13-13.35.09.16-.41,9.57,8.74,2.74,2.53c.29.28.52.51.72.69a1.57,1.57,0,0,1,.25.27,12.7,12.7,0,0,1-1-.81l-2.78-2.4c-2.44-2.16-5.84-5.15-9.84-8.67l-.45-.41h.61l13.34-.14,13.34-.08h.62l-.46.42-9.69,8.82-2.74,2.46A11.07,11.07,0,0,1,181.67,303.66Z"/><path class="cls-5" d="M177.94,300.31a47.36,47.36,0,0,1-4.58,5.34,46.35,46.35,0,0,1-5,5A46.88,46.88,0,0,1,173,305.3,48,48,0,0,1,177.94,300.31Z"/><path class="cls-5" d="M195.07,310.42a49.35,49.35,0,0,1-5-4.9,47.21,47.21,0,0,1-4.67-5.27,48.87,48.87,0,0,1,5.05,4.91A47.9,47.9,0,0,1,195.07,310.42Z"/><rect class="cls-9" x="160.52" y="222.64" width="43.16" height="43.16" rx="5.4"/><path class="cls-3" d="M194.68,253.51a2,2,0,0,1,0-.37c0-.28,0-.62,0-1,0-1-.05-2.26-.09-3.92-.05-3.39-.13-8.17-.23-13.93l.22.21-25,.25.26-.26h0V237c0,.86,0,1.71,0,2.55,0,1.68,0,3.33,0,5,0,3.23,0,6.31,0,9.19l-.23-.23,18,0,5.15,0,1.38,0a2.86,2.86,0,0,1,.49,0,2.23,2.23,0,0,1-.44,0l-1.33,0-5.09.1-18.14.27h-.23v-.23c0-2.88-.06-6-.09-9.2,0-1.61,0-3.26,0-5,0-.84,0-1.69,0-2.54v-2.57h0l.26-.27,25-.16h.21v.21c0,5.82,0,10.65,0,14.08,0,1.63,0,2.93,0,3.87,0,.41,0,.74,0,1A1.77,1.77,0,0,1,194.68,253.51Z"/><path class="cls-3" d="M177.87,230.66a13.14,13.14,0,0,1,2.19-.15c1.39,0,3.36-.1,5.72-.14h.13l.07.12,2.23,3.68.23.38H188l-2.37,0c-3.94,0-7.52,0-10.13,0h-.33l.16-.28c1.42-2.35,2.42-3.76,2.55-3.64s-.24.34-.62,1l-1.6,2.82-.17-.28c2.61-.07,6.19-.13,10.14-.16l2.36,0-.21.39-2.19-3.7.2.11c-2.35,0-4.33,0-5.72-.05A13.1,13.1,0,0,1,177.87,230.66Z"/><path class="cls-3" d="M187.25,245.67c-.06,0,.13-.49.18-1.39a5.73,5.73,0,0,0-1-3.56,5.52,5.52,0,1,0-2.85,8.36,5.69,5.69,0,0,0,3-2.2c.5-.74.66-1.23.71-1.21a1.48,1.48,0,0,1-.09.36,4.51,4.51,0,0,1-.45,1,5.71,5.71,0,0,1-3,2.43,5.91,5.91,0,0,1-7.59-3.82,6,6,0,0,1,0-3.73,5.92,5.92,0,0,1,2.25-3,5.78,5.78,0,0,1,3.31-1.06,5.89,5.89,0,0,1,5,2.67,5.76,5.76,0,0,1,.9,3.78,4,4,0,0,1-.23,1A1.45,1.45,0,0,1,187.25,245.67Z"/><rect class="cls-13" x="217.78" y="164.9" width="43.16" height="43.16" rx="5.4" transform="translate(-1.53 1.98) rotate(-0.47)"/><path class="cls-12" d="M253.14,185.74a25,25,0,0,0-.57-3.47,14.31,14.31,0,0,0-5.29-7.72,14.12,14.12,0,0,0-13.38-1.88,14.12,14.12,0,0,0-6.49,5,14,14,0,0,0,.13,16.63,14.09,14.09,0,0,0,6.58,4.86,14.16,14.16,0,0,0,7.41.57,13.94,13.94,0,0,0,5.93-2.67,14.22,14.22,0,0,0,5.16-7.81,24.56,24.56,0,0,0,.52-3.48.6.6,0,0,1,0,.23v.69a5.76,5.76,0,0,1-.07,1.11,11.29,11.29,0,0,1-.26,1.5,13.71,13.71,0,0,1-1.52,3.88,14.5,14.5,0,0,1-9.69,7,14.64,14.64,0,0,1-7.65-.54,14.63,14.63,0,0,1-6.82-5,14.48,14.48,0,0,1-.15-17.24,13.78,13.78,0,0,1,3.07-3.12,13.56,13.56,0,0,1,3.67-2,14.6,14.6,0,0,1,7.65-.67,14.44,14.44,0,0,1,9.8,6.82,13.4,13.4,0,0,1,1.58,3.85,9.91,9.91,0,0,1,.28,1.5,6,6,0,0,1,.1,1.11c0,.27,0,.49,0,.68A.82.82,0,0,1,253.14,185.74Z"/><path class="cls-12" d="M235.31,179a7.59,7.59,0,0,1,.82.41l2.38,1.25c2.05,1.09,5,2.67,8.44,4.56l.38.21-.38.22-5.64,3.29-5.77,3.34-.36.21v-.42c0-3.89,0-7.21,0-9.5,0-1.08,0-2,0-2.67s0-.92,0-.9,0,.39.06,1,0,1.64.08,2.74c.07,2.33.17,5.54.22,9.29l-.37-.21,5.75-3.36,5.66-3.27v.43c-3.3-1.86-6.09-3.5-8.12-4.69l-2.39-1.41C235.64,179.22,235.33,179,235.31,179Z"/><path class="cls-2" d="M194.83,208c0-.15.68-.27,1.51-.28s1.52.11,1.52.25-.68.27-1.51.27S194.84,208.1,194.83,208Z"/><path class="cls-2" d="M188.79,208c0-.15.67-.27,1.51-.28s1.51.11,1.51.25-.67.27-1.51.27S188.79,208.15,188.79,208Z"/><path class="cls-2" d="M182.74,208.06c0-.15.67-.27,1.51-.28s1.51.11,1.51.25-.67.27-1.51.27S182.74,208.2,182.74,208.06Z"/><path class="cls-2" d="M176.69,208.11c0-.15.67-.27,1.51-.28s1.51.11,1.51.25-.67.27-1.51.27S176.69,208.25,176.69,208.11Z"/><path class="cls-2" d="M170.64,208.16c0-.15.67-.27,1.51-.28s1.51.11,1.51.25-.67.27-1.51.27S170.64,208.3,170.64,208.16Z"/><path class="cls-2" d="M164.59,208.13c0-.16.66-.16,1.51-.2s1.51.11,1.51.25-.67.27-1.51.27S164.55,208.25,164.59,208.13Z"/><path class="cls-2" d="M160.28,204.34c.14,0,.41.56.85,1.23s.86,1.17.76,1.28-.72-.25-1.2-1S160.14,204.36,160.28,204.34Z"/><path class="cls-2" d="M160,198.31c.14,0,.26.67.27,1.51s-.1,1.51-.25,1.51-.26-.67-.27-1.51S159.87,198.31,160,198.31Z"/><path class="cls-2" d="M160,192.26c.14,0,.26.67.27,1.51s-.1,1.51-.25,1.51-.26-.67-.27-1.51S159.82,192.26,160,192.26Z"/><path class="cls-2" d="M159.92,186.21c.14,0,.26.67.27,1.51s-.1,1.51-.25,1.51-.26-.67-.27-1.51S159.77,186.21,159.92,186.21Z"/><path class="cls-2" d="M159.87,180.16c.14,0,.26.68.27,1.51s-.1,1.51-.25,1.51-.26-.67-.27-1.51S159.72,180.16,159.87,180.16Z"/><path class="cls-2" d="M159.82,174.11c.14,0,.26.68.27,1.51s-.1,1.51-.25,1.52-.26-.68-.27-1.51S159.67,174.11,159.82,174.11Z"/><path class="cls-2" d="M160.3,168.14c.13.06-.07.7-.19,1.48s-.15,1.47-.32,1.47-.32-.67-.19-1.55S160.18,168.07,160.3,168.14Z"/><path class="cls-2" d="M165.13,165c0,.15-.65.24-1.41.47s-1.36.51-1.45.38.45-.63,1.3-.88S165.14,164.9,165.13,165Z"/><path class="cls-2" d="M171.18,165c0,.14-.67.26-1.51.27s-1.51-.1-1.51-.25.67-.26,1.51-.27S171.18,164.84,171.18,165Z"/><path class="cls-2" d="M177.23,164.94c0,.14-.67.26-1.51.27s-1.51-.1-1.51-.25.67-.26,1.51-.27S177.23,164.79,177.23,164.94Z"/><path class="cls-2" d="M183.28,164.89c0,.14-.67.26-1.51.27s-1.51-.1-1.51-.25.67-.26,1.51-.27S183.28,164.74,183.28,164.89Z"/><path class="cls-2" d="M189.33,164.84c0,.14-.67.26-1.51.27s-1.51-.1-1.51-.25.67-.26,1.51-.27S189.33,164.69,189.33,164.84Z"/><path class="cls-2" d="M195.38,164.79c0,.14-.68.26-1.51.27s-1.51-.1-1.52-.25.68-.26,1.52-.27S195.38,164.64,195.38,164.79Z"/><path class="cls-2" d="M201.11,166.11c-.11.11-.66-.26-1.38-.59s-1.35-.54-1.33-.68.75-.17,1.55.21S201.2,166,201.11,166.11Z"/><path class="cls-2" d="M203,171.63c-.14,0-.26-.68-.27-1.51s-.11-1.45,0-1.5.48.6.49,1.49S203.1,171.63,203,171.63Z"/><path class="cls-2" d="M203,177.68c-.14,0-.26-.68-.27-1.51s.1-1.52.25-1.52.26.68.27,1.51S203.15,177.67,203,177.68Z"/><path class="cls-2" d="M203.06,183.72c-.14,0-.26-.67-.27-1.51s.1-1.51.25-1.51.26.68.27,1.51S203.2,183.72,203.06,183.72Z"/><path class="cls-2" d="M203.11,189.77c-.14,0-.26-.67-.27-1.51s.1-1.51.25-1.51.26.67.27,1.51S203.25,189.77,203.11,189.77Z"/><path class="cls-2" d="M203.16,195.82c-.14,0-.26-.67-.27-1.51s.1-1.51.25-1.51.26.67.27,1.51S203.3,195.82,203.16,195.82Z"/><path class="cls-2" d="M203.21,201.87c-.14,0-.26-.67-.27-1.51s.1-1.51.25-1.51.26.67.27,1.51S203.35,201.87,203.21,201.87Z"/><path class="cls-2" d="M200.74,207.07c-.08-.13.43-.56.94-1.16s.89-1.15,1-1.09-.05.77-.63,1.44S200.81,207.19,200.74,207.07Z"/><path class="cls-2" d="M251.82,321.09c0-.15.68-.27,1.51-.27s1.52.1,1.52.24-.68.27-1.51.28S251.82,321.23,251.82,321.09Z"/><path class="cls-2" d="M245.77,321.14c0-.15.68-.27,1.51-.27s1.52.1,1.52.24-.68.27-1.51.28S245.77,321.28,245.77,321.14Z"/><path class="cls-2" d="M239.72,321.19c0-.15.68-.27,1.51-.27s1.52.1,1.52.24-.68.27-1.51.28S239.73,321.33,239.72,321.19Z"/><path class="cls-2" d="M233.68,321.24c0-.15.67-.27,1.51-.27s1.51.1,1.51.24-.67.27-1.51.28S233.68,321.38,233.68,321.24Z"/><path class="cls-2" d="M227.63,321.29c0-.15.67-.27,1.51-.27s1.51.1,1.51.24-.67.27-1.51.28S227.63,321.43,227.63,321.29Z"/><path class="cls-2" d="M221.58,321.26c0-.16.66-.16,1.51-.19s1.51.1,1.51.24-.67.27-1.51.28S221.54,321.38,221.58,321.26Z"/><path class="cls-2" d="M217.27,317.47c.14,0,.41.56.84,1.23s.86,1.17.77,1.29-.73-.26-1.2-1S217.13,317.5,217.27,317.47Z"/><path class="cls-2" d="M217,311.44c.14,0,.26.67.27,1.51s-.11,1.51-.25,1.51-.27-.67-.27-1.51S216.86,311.44,217,311.44Z"/><path class="cls-2" d="M217,305.39c.14,0,.26.68.27,1.51s-.11,1.51-.25,1.51-.27-.67-.27-1.51S216.81,305.39,217,305.39Z"/><path class="cls-2" d="M216.91,299.34c.14,0,.26.68.27,1.51s-.11,1.51-.25,1.52-.27-.68-.27-1.51S216.76,299.34,216.91,299.34Z"/><path class="cls-2" d="M216.86,293.29c.14,0,.26.68.27,1.51s-.11,1.52-.25,1.52-.27-.68-.27-1.51S216.71,293.29,216.86,293.29Z"/><path class="cls-2" d="M216.81,287.24c.14,0,.26.68.27,1.51s-.11,1.52-.25,1.52-.27-.68-.27-1.51S216.66,287.24,216.81,287.24Z"/><path class="cls-2" d="M217.29,281.27c.13.07-.07.7-.19,1.48s-.16,1.47-.32,1.47-.32-.67-.19-1.55S217.17,281.2,217.29,281.27Z"/><path class="cls-2" d="M222.12,278.17c0,.15-.66.24-1.41.47s-1.36.51-1.45.38.44-.62,1.3-.87S222.13,278,222.12,278.17Z"/><path class="cls-2" d="M228.17,278.12c0,.14-.67.27-1.51.27s-1.51-.1-1.51-.24.67-.27,1.51-.28S228.17,278,228.17,278.12Z"/><path class="cls-2" d="M234.22,278.07c0,.14-.67.27-1.51.27s-1.51-.1-1.51-.24.67-.27,1.51-.28S234.22,277.93,234.22,278.07Z"/><path class="cls-2" d="M240.27,278c0,.14-.68.27-1.51.27s-1.51-.1-1.51-.24.67-.27,1.51-.28S240.27,277.88,240.27,278Z"/><path class="cls-2" d="M246.32,278c0,.14-.68.27-1.51.27s-1.51-.1-1.52-.24.68-.27,1.51-.28S246.32,277.83,246.32,278Z"/><path class="cls-2" d="M252.37,277.92c0,.14-.68.27-1.51.27s-1.52-.1-1.52-.24.68-.27,1.51-.28S252.37,277.78,252.37,277.92Z"/><path class="cls-2" d="M258.09,279.24c-.1.11-.65-.26-1.37-.59s-1.35-.53-1.33-.68.75-.17,1.55.21S258.19,279.14,258.09,279.24Z"/><path class="cls-2" d="M260,284.76c-.14,0-.27-.68-.27-1.51s-.11-1.45,0-1.49.48.6.49,1.48S260.09,284.76,260,284.76Z"/><path class="cls-2" d="M260,290.81c-.14,0-.27-.68-.27-1.51s.1-1.51.24-1.52.27.68.28,1.51S260.14,290.81,260,290.81Z"/><path class="cls-2" d="M260.05,296.86c-.14,0-.27-.68-.27-1.51s.1-1.52.24-1.52.27.68.28,1.51S260.19,296.86,260.05,296.86Z"/><path class="cls-2" d="M260.1,302.91c-.14,0-.27-.68-.27-1.51s.1-1.52.24-1.52.27.68.28,1.51S260.24,302.91,260.1,302.91Z"/><path class="cls-2" d="M260.15,309c-.14,0-.27-.68-.27-1.51s.1-1.52.24-1.52.27.68.28,1.51S260.29,309,260.15,309Z"/><path class="cls-2" d="M260.2,315c-.14,0-.27-.67-.27-1.51s.1-1.51.24-1.51.27.67.28,1.51S260.34,315,260.2,315Z"/><path class="cls-2" d="M257.73,320.2c-.08-.12.42-.55.94-1.15s.89-1.15,1-1.09,0,.76-.63,1.43S257.79,320.33,257.73,320.2Z"/><path class="cls-2" d="M251.82,265.76c0-.15.68-.27,1.51-.27s1.52.1,1.52.24-.68.27-1.51.28S251.82,265.9,251.82,265.76Z"/><path class="cls-2" d="M245.77,265.81c0-.15.68-.27,1.51-.27s1.52.1,1.52.24-.68.27-1.51.28S245.77,266,245.77,265.81Z"/><path class="cls-2" d="M239.72,265.86c0-.15.68-.27,1.51-.27s1.52.1,1.52.24-.68.27-1.51.28S239.73,266,239.72,265.86Z"/><path class="cls-2" d="M233.68,265.91c0-.15.67-.27,1.51-.27s1.51.1,1.51.24-.67.27-1.51.28S233.68,266.05,233.68,265.91Z"/><path class="cls-2" d="M227.63,266c0-.15.67-.27,1.51-.27s1.51.1,1.51.24-.67.27-1.51.28S227.63,266.1,227.63,266Z"/><path class="cls-2" d="M221.58,265.93c0-.16.66-.16,1.51-.19s1.51.1,1.51.24-.67.27-1.51.28S221.54,266.05,221.58,265.93Z"/><path class="cls-2" d="M217.27,262.14c.14,0,.41.56.84,1.23s.86,1.17.77,1.29-.73-.26-1.2-1S217.13,262.17,217.27,262.14Z"/><path class="cls-2" d="M217,256.11c.14,0,.26.67.27,1.51s-.11,1.51-.25,1.51-.27-.67-.27-1.51S216.86,256.11,217,256.11Z"/><path class="cls-2" d="M217,250.06c.14,0,.26.68.27,1.51s-.11,1.51-.25,1.51-.27-.67-.27-1.51S216.81,250.06,217,250.06Z"/><path class="cls-2" d="M216.91,244c.14,0,.26.68.27,1.51s-.11,1.51-.25,1.52-.27-.68-.27-1.51S216.76,244,216.91,244Z"/><path class="cls-2" d="M216.86,238c.14,0,.26.68.27,1.51S217,241,216.88,241s-.27-.68-.27-1.51S216.71,238,216.86,238Z"/><path class="cls-2" d="M216.81,231.91c.14,0,.26.68.27,1.51s-.11,1.52-.25,1.52-.27-.68-.27-1.51S216.66,231.92,216.81,231.91Z"/><path class="cls-2" d="M217.29,225.94c.13.07-.07.7-.19,1.48s-.16,1.47-.32,1.47-.32-.67-.19-1.55S217.17,225.87,217.29,225.94Z"/><path class="cls-2" d="M222.12,222.84c0,.15-.66.24-1.41.47s-1.36.51-1.45.38.44-.62,1.3-.87S222.13,222.7,222.12,222.84Z"/><path class="cls-2" d="M228.17,222.79c0,.14-.67.27-1.51.27s-1.51-.1-1.51-.24.67-.27,1.51-.28S228.17,222.65,228.17,222.79Z"/><path class="cls-2" d="M234.22,222.74c0,.14-.67.27-1.51.27s-1.51-.1-1.51-.24.67-.27,1.51-.28S234.22,222.6,234.22,222.74Z"/><path class="cls-2" d="M240.27,222.69c0,.14-.68.27-1.51.27s-1.51-.1-1.51-.24.67-.27,1.51-.28S240.27,222.55,240.27,222.69Z"/><path class="cls-2" d="M246.32,222.64c0,.14-.68.27-1.51.27s-1.51-.1-1.52-.24.68-.27,1.51-.28S246.32,222.5,246.32,222.64Z"/><path class="cls-2" d="M252.37,222.59c0,.14-.68.27-1.51.27s-1.52-.1-1.52-.24.68-.27,1.51-.28S252.37,222.45,252.37,222.59Z"/><path class="cls-2" d="M258.09,223.91c-.1.11-.65-.26-1.37-.59s-1.35-.53-1.33-.68.75-.17,1.55.21S258.19,223.81,258.09,223.91Z"/><path class="cls-2" d="M260,229.43c-.14,0-.27-.68-.27-1.51s-.11-1.45,0-1.49.48.6.49,1.48S260.09,229.43,260,229.43Z"/><path class="cls-2" d="M260,235.48c-.14,0-.27-.68-.27-1.51s.1-1.51.24-1.52.27.68.28,1.51S260.14,235.48,260,235.48Z"/><path class="cls-2" d="M260.05,241.53c-.14,0-.27-.68-.27-1.51s.1-1.52.24-1.52.27.68.28,1.51S260.19,241.53,260.05,241.53Z"/><path class="cls-2" d="M260.1,247.58c-.14,0-.27-.68-.27-1.51s.1-1.52.24-1.52.27.68.28,1.51S260.24,247.58,260.1,247.58Z"/><path class="cls-2" d="M260.15,253.63c-.14,0-.27-.68-.27-1.51s.1-1.52.24-1.52.27.68.28,1.51S260.29,253.62,260.15,253.63Z"/><path class="cls-2" d="M260.2,259.67c-.14,0-.27-.67-.27-1.51s.1-1.51.24-1.51.27.67.28,1.51S260.34,259.67,260.2,259.67Z"/><path class="cls-2" d="M257.73,264.87c-.08-.12.42-.55.94-1.15s.89-1.15,1-1.09,0,.76-.63,1.43S257.79,265,257.73,264.87Z"/><ellipse class="cls-9" cx="199.86" cy="107.62" rx="7.88" ry="8.32"/><path class="cls-12" d="M202.75,109c0,1.22-.83,2.17-2.5,2.18a3.48,3.48,0,0,1-2.5-.91l.34-.6a3,3,0,0,0,2.15.83c1.15,0,1.78-.59,1.77-1.49s-.59-1.45-1.88-1.44h-.49V107l1.9-2.56-3.54,0v-.66l4.46,0v.53l-1.94,2.62C202,107,202.74,107.78,202.75,109Z"/><path class="cls-5" d="M200.08,336.05a2.13,2.13,0,1,1-2.14-2.1A2.12,2.12,0,0,1,200.08,336.05Z"/><path class="cls-5" d="M212,336a2.13,2.13,0,1,1-2.14-2.11A2.12,2.12,0,0,1,212,336Z"/><path class="cls-5" d="M223.9,335.86a2.13,2.13,0,1,1-2.14-2.11A2.13,2.13,0,0,1,223.9,335.86Z"/><path class="cls-5" d="M266.4,78.92a61.52,61.52,0,0,1-6.25.21A59.8,59.8,0,0,1,253.9,79c0-.08,2.8-.18,6.25-.2A61.67,61.67,0,0,1,266.4,78.92Z"/><path class="cls-5" d="M266.43,82.12c0,.08-2.8.18-6.25.21s-6.25,0-6.25-.11a61.52,61.52,0,0,1,6.25-.21A59.93,59.93,0,0,1,266.43,82.12Z"/><path class="cls-5" d="M266.45,85.31a61.22,61.22,0,0,1-6.24.21c-3.45,0-6.25,0-6.25-.1a61.22,61.22,0,0,1,6.24-.21C263.65,85.18,266.45,85.23,266.45,85.31Z"/><path class="cls-5" d="M152.76,89l.26,0,.72,0,2.67-.08-.09.09c0-.59,0-1.24,0-1.93a10.44,10.44,0,0,1,0-1.12,1.05,1.05,0,0,1,.91-.84c.44,0,.81,0,1.28,0a1,1,0,0,1,.89,1c0,.9,0,1.84,0,2.82l-.15-.15,3.36,0-.15.15c0-1.35,0-2.75,0-4.19,0-.36,0-.71,0-1.07a1.11,1.11,0,0,0-.47-.78l-1.47-1.45L159.07,80l-.69-.68c-.24-.23-.42-.46-.68-.51a.89.89,0,0,0-.76.14c-.19.17-.42.42-.62.62l-1.21,1.21c-.76.79-1.55,1.51-2.12,2.19a2.37,2.37,0,0,0-.17,1.24c0,.42,0,.81,0,1.19,0,.72,0,1.35,0,1.91s0,.88,0,1.22a3.94,3.94,0,0,1,0,.44,1.87,1.87,0,0,1,0-.4c0-.33,0-.73,0-1.2s0-1.2-.05-1.93c0-.38,0-.78,0-1.21a2.48,2.48,0,0,1,.18-1.37c.62-.77,1.36-1.45,2.13-2.26l1.19-1.23c.22-.21.39-.42.66-.64a1.16,1.16,0,0,1,1-.2,1.85,1.85,0,0,1,.82.58l.69.68,1.42,1.39,1.48,1.45a1.4,1.4,0,0,1,.56,1c0,.36,0,.72,0,1.08,0,1.43,0,2.83,0,4.19V89h-.15l-3.37,0h-.14v-.15c0-1,0-1.92,0-2.82a.78.78,0,0,0-.66-.8c-.38,0-.84,0-1.22,0a.82.82,0,0,0-.71.64c0,.33,0,.73,0,1.07v2h-.09l-2.72,0H153C152.83,89,152.75,89,152.76,89Z"/><rect class="cls-13" x="265.43" y="281.26" width="43.16" height="43.16" rx="5.4" transform="matrix(1, -0.01, 0.01, 1, -2.49, 2.38)"/><path class="cls-3" d="M276.5,301l.44.36,1.21,1,4.43,3.64.06,0v.08c-.21,2.2-.47,4.85-.75,7.83l-.32-.2,6.68-4.15.1-.06.12.05,7.19,3.16-.35.29c-.6-2.46-1.22-5-1.85-7.63,0-.11-.06.23.06-.24h0l0,0,0-.05.08-.09.17-.19.34-.38.67-.74,1.32-1.48c.87-1,1.74-1.93,2.58-2.88l.18.43-7.84-.62H291l-.07-.11c-1.4-2.44-2.71-4.72-3.92-6.81l.38,0-3.05,7.24,0,.08h-.08l-5.62,1.11-1.54.3c-.35.06-.54.1-.55.09l.47-.12,1.47-.35,5.71-1.33-.11.09L287,292l.16-.39.21.36,4,6.78-.19-.12,7.83.59.52,0-.35.38-2.58,2.89L295.24,304l-.66.74-.34.38-.17.18-.08.1,0,0,0,0h0c.12-.47,0-.13.06-.23.64,2.61,1.25,5.17,1.85,7.63l.12.51-.47-.21-7.18-3.2h.22l-6.71,4.09-.36.22,0-.42c.33-3,.62-5.61.86-7.81l.05.14L278,302.34l-1.13-1A3.21,3.21,0,0,1,276.5,301Z"/></g></g></svg>